<svg xmlns="http://www.w3.org/2000/svg" width='60' height='60' viewBox="0 0 512 512"><defs><style>.cls-1{fill:#3342ae;}.cls-2{fill:#5766ce;}.cls-3{fill:#fff;}.cls-4{fill:#d1d2d3;}.cls-5{fill:#74e1f3;}.cls-6{fill:#9df0f9;}.cls-7{fill:#6fd3dd;}.cls-8{fill:#9feef7;}.cls-9{fill:#c0f6f9;}</style></defs><title>Dental Care</title><g id="BULINE"><circle class="cls-1" cx="256" cy="256" r="256"></circle></g><g id="Icons"><path class="cls-2" d="M508.27,212.29A157,157,0,0,1,222.14,123q0-5.61.39-11.11A156.72,156.72,0,0,1,280.1,1.12a254.4,254.4,0,0,1,99.34,30.56,1.32,1.32,0,0,1,1.33-.05,1.11,1.11,0,0,1,.38,1A256.24,256.24,0,0,1,508.27,212.29Z"></path><path class="cls-3" d="M423.43,223.24c0-68.06-44.75-123.24-100-123.24a83.79,83.79,0,0,0-39.89,10.22,67.56,67.56,0,0,1-64.29,0A83.72,83.72,0,0,0,179.41,100c-55.21,0-100,55.18-100,123.24a143.86,143.86,0,0,0,16.21,67.27c20.24,38.18,33.7,79.58,37.78,122.6l.29,3.08c2.16,22.77,20.37,41.22,43.21,42.43A45.8,45.8,0,0,0,225,417.22L232.78,335a13.36,13.36,0,0,1,10.66-11.83l.18,0a39.59,39.59,0,0,1,15.64,0l.18,0A13.36,13.36,0,0,1,270.1,335l7.69,81.16C280,439,298.16,457.41,321,458.62a45.79,45.79,0,0,0,48.05-41.4l.39-4.11c4.08-43,17.54-84.42,37.78-122.6A143.86,143.86,0,0,0,423.43,223.24Z"></path><path class="cls-4" d="M206.5,449.78a45.55,45.55,0,0,1-29.56,8.84c-22.83-1.21-41-19.65-43.22-42.43l-.27-3.08c-4.08-43-17.55-84.41-37.79-122.6a143.85,143.85,0,0,1-16.21-67.26c0-68.07,44.75-123.25,100-123.25a82.25,82.25,0,0,1,27,4.55c-42.12,14.48-73,62.15-73,118.7a143.85,143.85,0,0,0,16.21,67.26c20.24,38.19,33.71,79.58,37.79,122.6l.27,3.08A47.49,47.49,0,0,0,206.5,449.78Z"></path><path class="cls-3" d="M393.47,407c-1.9,2.71,2.65,9.31,10.56,16-5.21,9-7.26,16.76-4.54,18.66s9.34-2.66,16-10.6c9,5.23,16.8,7.29,18.71,4.57s-2.68-9.37-10.66-16c5.21-9,7.25-16.75,4.54-18.66s-9.34,2.67-16,10.62C403.13,406.31,395.37,404.28,393.47,407Z"></path><path class="cls-3" d="M26.57,303.09c-1.9,2.71,2.65,9.31,10.56,16-5.21,9-7.26,16.76-4.54,18.66s9.34-2.66,16-10.6c9,5.23,16.8,7.29,18.71,4.57s-2.68-9.37-10.66-16.05c5.21-9,7.25-16.74,4.54-18.65s-9.34,2.67-16,10.61C36.23,302.41,28.47,300.38,26.57,303.09Z"></path><path class="cls-3" d="M231.07,429.49c-1.9,2.71,2.65,9.31,10.56,16-5.21,9-7.26,16.76-4.54,18.66s9.34-2.66,16-10.6c9,5.23,16.8,7.29,18.71,4.57s-2.68-9.37-10.66-16.05c5.21-9,7.26-16.74,4.54-18.65s-9.34,2.67-16,10.62C240.73,428.81,233,426.78,231.07,429.49Z"></path><circle class="cls-5" cx="348.94" cy="323.13" r="21.94"></circle><circle class="cls-5" cx="133.44" cy="413.11" r="30.64"></circle><circle class="cls-6" cx="164.08" cy="92.32" r="30.64"></circle><circle class="cls-6" cx="466.44" cy="294.99" r="30.64"></circle><circle class="cls-5" cx="46.94" cy="202.22" r="21.94"></circle><path class="cls-5" d="M470.56,180.28a21.94,21.94,0,0,0-21.94-21.94c-.32,0-.63,0-.94,0a50.6,50.6,0,0,0,.94-9.68,49.86,49.86,0,0,0-73.7-43.77,49.84,49.84,0,0,0-94.78-2,37,37,0,1,0-16.93,69.9,37.63,37.63,0,0,0,5-.35c0,.11,0,.23,0,.35a37,37,0,0,0,60.53,28.55,37,37,0,0,0,35.47,26.45l.65,0a21.42,21.42,0,0,0-.37,3.95,21.94,21.94,0,0,0,41.19,10.53A37,37,0,0,0,459,199.62,21.93,21.93,0,0,0,470.56,180.28Z"></path><path class="cls-7" d="M458.93,220.32a37,37,0,0,1-53.25,22,21.94,21.94,0,0,1-41.19-10.53,21.42,21.42,0,0,1,.37-3.95l-.65,0a37,37,0,0,1-35.47-26.45,37,37,0,0,1-60.53-28.55c0-.12,0-.23,0-.35a37.63,37.63,0,0,1-5,.35,37,37,0,0,1-7.5-73.24,37,37,0,0,0,35.5,47.47,37.63,37.63,0,0,0,5-.35c0,.12,0,.23,0,.35a37,37,0,0,0,60.53,28.55,37,37,0,0,0,35.47,26.45l.65,0a21.61,21.61,0,0,0-.37,4,21.94,21.94,0,0,0,41.19,10.53,37.14,37.14,0,0,0,25.25,3.77Z"></path><circle class="cls-8" cx="393.04" cy="127.24" r="13.9"></circle><circle class="cls-9" cx="406.94" cy="149.74" r="16.49"></circle><path class="cls-3" d="M404.36,104.25c-.74,2.29-11-.29-21.3-2.86-3.62-.91-7.23-1.82-10.42-2.52-5.56-1.22-9.85-1.8-10.7-.64-1.14,1.57,2.61,8.06,7.08,15.29,4.11,6.62,8.83,13.86,11,18.5a12.7,12.7,0,0,0,.51,1.2.08.08,0,0,1,0,.05c.7,1.77.87,3,.25,3.46C377,139.44,354.46,105.49,350,107c-4.33,1.41-2.61,42.19-7.4,42.19s-3.08-40.78-7.41-42.19c-4.48-1.46-27.06,32.49-30.79,29.78-3.41-2.49,17.05-29,18.9-36.73a2.25,2.25,0,0,0-.08-1.77c-2.71-3.73-41,10.51-42.42,6-1.4-4.32,37.86-15.28,37.86-20.07,0-2.06-7.21-5.25-15.35-8.56C292.44,71.21,280,66.57,280.77,64.1c1.16-3.55,25.35,4.63,36.74,6.35,3,.45,5.11.45,5.68-.33a1.05,1.05,0,0,0,.18-.47c.91-5.41-22.64-35.37-19-38s26.31,31.23,30.79,29.78c4.33-1.41,2.61-42.19,7.41-42.19S345.64,60,350,61.41c4.11,1.33,23.37-27,29.47-29.73a1.32,1.32,0,0,1,1.33-.05,1.11,1.11,0,0,1,.38,1c0,6.11-21.76,34-19.21,37.49,2.72,3.74,41-10.5,42.42-6S366.5,79.38,366.5,84.18c0,3.35,19.18,9.71,30.25,14.72C401.52,101.05,404.78,103,404.36,104.25Z"></path></g></svg>