<svg xmlns="http://www.w3.org/2000/svg" width='60' height='60' viewBox="0 0 512 512"><defs><style>.cls-1{fill:#eb3c65;}.cls-2{fill:#a0335a;}.cls-3{fill:#e3a76d;}.cls-4{fill:#1fb7a2;}.cls-5{fill:#1fa08a;}.cls-6{fill:#29327f;}.cls-7{fill:#252f6d;}.cls-8{fill:#f2bc88;}.cls-9{fill:#fff;}.cls-10{fill:#c6c6c6;}.cls-11{fill:#ffca57;}.cls-12{fill:#d6d6d6;}.cls-13{fill:#afafaf;}.cls-14{fill:#dbac4d;}.cls-15{fill:#1a9a8e;}.cls-16{fill:#ff79ab;}.cls-17{fill:#d36a95;}.cls-18{fill:#dbdbdd;}.cls-19{fill:#d1d0cf;}.cls-20{fill:#74e1f3;}.cls-21{fill:#b7b7b7;}.cls-22{fill:#6bd3dd;}</style></defs><title>Dental Care</title><g id="BULINE"><circle class="cls-1" cx="256" cy="256" r="256"></circle></g><g id="Icons"><circle class="cls-2" cx="258.6" cy="256.18" r="204.81"></circle><rect class="cls-3" x="399.37" y="301.72" width="37.76" height="54" transform="translate(148.1 -129.55) rotate(21.32)"></rect><rect class="cls-4" x="356.26" y="323.67" width="59" height="139.73" transform="translate(224.69 -133.47) rotate(27.43)"></rect><path class="cls-4" d="M225.1,298.21h63.39a66.34,66.34,0,0,1,66.34,66.34V488.85a0,0,0,0,1,0,0H158.76a0,0,0,0,1,0,0V364.56A66.34,66.34,0,0,1,225.1,298.21Z"></path><path class="cls-5" d="M271.77,298.21a66.35,66.35,0,0,0-66.34,66.35V488.85H158.76V364.56a66.36,66.36,0,0,1,66.35-66.35Z"></path><path class="cls-6" d="M263.85,109.59c-.85,0-1.71,0-2.58,0h-4a88.11,88.11,0,0,0-12.76.93c-51.91,7.58-83.51,61.4-66.24,110.94l9.81,28.13H329.47l9.82-26.69C359,169.3,320.89,111.24,263.85,109.59Z"></path><path class="cls-7" d="M231.6,221.42l9.81,28.13H188.08l-9.81-28.13C161,171.88,192.6,118.06,244.51,110.48a88.11,88.11,0,0,1,12.76-.93h4c.87,0,1.73,0,2.58,0a82,82,0,0,1,21.9,3.59C241.17,126.68,215.72,175.86,231.6,221.42Z"></path><path class="cls-8" d="M345.12,233.66a15.65,15.65,0,0,1-15.65,15.65h-.05a67.95,67.95,0,0,1-68,66.08h-5.38a67.93,67.93,0,0,1-68-66.08h-.05a15.66,15.66,0,0,1,0-31.31v-6.33c55.53,0,98.19-20.27,111.41-27.37a5,5,0,0,1,6.57,1.8c7.6,12.27,23.42,25.57,23.42,25.57V218A15.66,15.66,0,0,1,345.12,233.66Z"></path><path class="cls-3" d="M273.11,314.39a67.64,67.64,0,0,1-11.64,1h-5.39a68,68,0,0,1-67.95-66.08h0a15.66,15.66,0,0,1,0-31.31v-6.33a234.38,234.38,0,0,0,30.86-2.06A96.8,96.8,0,0,0,216.78,230C216.78,269.46,240.42,302.9,273.11,314.39Z"></path><circle class="cls-7" cx="220.43" cy="230" r="12.33"></circle><circle class="cls-9" cx="222.77" cy="225.01" r="5"></circle><circle class="cls-7" cx="298.08" cy="230" r="12.33"></circle><circle class="cls-9" cx="300.41" cy="225.01" r="5"></circle><circle class="cls-9" cx="258.6" cy="174.17" r="31.5"></circle><circle class="cls-10" cx="258.6" cy="174.17" r="24.83"></circle><circle class="cls-11" cx="258.6" cy="174.17" r="19.5"></circle><path class="cls-12" d="M258.7,199a31.66,31.66,0,0,0,9.65,5.14,31.5,31.5,0,1,1,0-59.94,31.66,31.66,0,0,0-9.65,5.14,32,32,0,0,0-6,6.26,31.52,31.52,0,0,0,0,37.14A32,32,0,0,0,258.7,199Z"></path><path class="cls-13" d="M258.7,199h-.1a24.83,24.83,0,1,1,0-49.66h.1a32,32,0,0,0-6,6.26,31.52,31.52,0,0,0,0,37.14A32,32,0,0,0,258.7,199Z"></path><path class="cls-14" d="M246.6,174.17a31.32,31.32,0,0,0,6.05,18.57,19.5,19.5,0,0,1,0-37.14A31.32,31.32,0,0,0,246.6,174.17Z"></path><ellipse class="cls-3" cx="258.6" cy="247.8" rx="15.67" ry="8.38"></ellipse><path class="cls-4" d="M327.39,264a68,68,0,0,1-65.93,51.36h-5.38a68,68,0,0,1-66.27-52.76Q258.62,231.37,327.39,264Z"></path><path class="cls-15" d="M273.1,314.39c-.47.09-.94.17-1.42.23-.95.15-1.9.27-2.86.38a68.81,68.81,0,0,1-7.36.39h-5.38l-1.51,0-1.24,0c-.64,0-1.28-.05-1.91-.1l-1-.08-.61,0c-.39,0-.78-.07-1.16-.12s-.79-.08-1.18-.14-1-.13-1.55-.21c-1.52-.23-3-.51-4.52-.84-.39-.08-.79-.17-1.18-.27-1.37-.32-2.72-.69-4.06-1.11-.32-.09-.64-.19-.95-.3l-.76-.25a65.82,65.82,0,0,1-6.91-2.75l-1-.48c-.43-.2-.86-.42-1.28-.64l-1.25-.65a64.24,64.24,0,0,1-6.68-4.1l-1.17-.83q-2.69-1.95-5.16-4.16c-.38-.33-.76-.67-1.13-1-.63-.58-1.24-1.17-1.85-1.78-.26-.26-.52-.52-.77-.79-1-1-1.92-2.05-2.83-3.12-.17-.19-.33-.38-.49-.58l-.65-.78q-.77-.94-1.5-1.92c-.28-.37-.55-.73-.82-1.11a69.06,69.06,0,0,1-5.19-8.43l-.62-1.21a67.59,67.59,0,0,1-3-6.94c-.19-.51-.37-1-.54-1.55-.11-.32-.22-.64-.32-1s-.19-.62-.29-.93-.18-.61-.26-.91c-.35-1.18-.65-2.37-.93-3.58a177.33,177.33,0,0,1,29.52-10.47C226.28,281.61,246.75,305.13,273.1,314.39Z"></path><path class="cls-8" d="M396,443.57v26.76c-2.34,1.53-4.7,3-7.1,4.49a255.72,255.72,0,0,1-262.34,2.1c-3.25-1.89-6.45-3.87-9.6-5.91V443.57Z"></path><path class="cls-3" d="M388.94,474.82a255.72,255.72,0,0,1-262.34,2.1c3.42-3.92,8.5-7.62,15-11q2.44-1.29,5.16-2.52c3.67-1.66,7.69-3.24,12-4.72q3.93-1.35,8.21-2.58a248.08,248.08,0,0,1,25.84-5.89q3.49-.63,7.11-1.17a.17.17,0,0,1,.1,0q2.67-.42,5.41-.79,5.91-.8,12.11-1.43c13-1.31,26.86-2,41.23-2H259c5.68,0,11.27.12,16.76.33a375.74,375.74,0,0,1,42.16,4h.1q3.33.51,6.54,1.08,8.4,1.47,16.05,3.3t14.28,3.92q3.33,1,6.43,2.16c.59.21,1.17.42,1.74.64q4.28,1.6,8.07,3.33c1.83.83,3.56,1.69,5.21,2.55q2.06,1.09,3.91,2.23A50.1,50.1,0,0,1,388.94,474.82Z"></path><path class="cls-16" d="M430.92,442.92A257.11,257.11,0,0,1,396,470.33c-2.34,1.53-4.7,3-7.1,4.49A255,255,0,0,1,332,500.53c-48.37,2.16-100.3,2.38-149.73.69a253.71,253.71,0,0,1-55.67-24.3c-3.25-1.89-6.45-3.87-9.6-5.91a257.4,257.4,0,0,1-35.92-28.09Z"></path><path class="cls-17" d="M141,460.36V443.57H376.9v16.79a26.68,26.68,0,0,1-1.08,7.54l0,.13c0,.11-.07.23-.11.34A25.83,25.83,0,0,1,366.91,481,24.2,24.2,0,0,1,352,486.15h-9.21c-.55,0-1.08,0-1.62-.06l-.39,0c-.43,0-.87-.08-1.3-.14l-.31-.05c-.52-.07-1-.17-1.54-.28l-.28-.07c-.41-.09-.83-.2-1.24-.32l-.39-.11c-.47-.14-.93-.3-1.38-.47l-.08,0c-.48-.18-.94-.39-1.41-.59l-.36-.18c-.36-.16-.72-.34-1.07-.53l-.33-.17c-.44-.25-.87-.5-1.29-.77l-.23-.15c-.35-.23-.69-.47-1-.71l-.35-.26c-.35-.26-.7-.53-1-.82l-.15-.12c-.38-.32-.75-.67-1.11-1l-.28-.28c-.28-.28-.56-.56-.83-.86a3.45,3.45,0,0,0-.26-.28c-.33-.38-.66-.77-1-1.16l-.11-.16c-.28-.35-.55-.72-.81-1.08l-.23-.34c-.25-.37-.48-.74-.72-1.13a1.74,1.74,0,0,0-.11-.18c-.27-.44-.51-.9-.75-1.36l-.05-.1h0a26.41,26.41,0,0,1-2.86-12,26.33,26.33,0,0,1-1.08,7.54l0,.13c0,.11-.07.23-.11.34A25.76,25.76,0,0,1,307.93,481,24.18,24.18,0,0,1,293,486.15h-9.21c-.54,0-1.08,0-1.61-.06l-.4,0c-.43,0-.86-.08-1.3-.14l-.3-.05c-.53-.07-1-.17-1.55-.28l-.27-.07c-.42-.09-.83-.2-1.25-.32l-.39-.11c-.46-.14-.93-.3-1.38-.47l-.07,0c-.48-.18-.95-.39-1.41-.59-.12-.06-.25-.11-.36-.18-.37-.16-.72-.34-1.08-.53l-.32-.17c-.44-.25-.88-.5-1.3-.77l-.23-.15c-.35-.23-.69-.47-1-.71l-.34-.26c-.36-.26-.7-.53-1.05-.82l-.14-.12c-.38-.32-.76-.67-1.12-1l-.28-.28c-.28-.28-.55-.56-.83-.86a3.45,3.45,0,0,0-.26-.28c-.33-.38-.66-.77-1-1.16l-.11-.16c-.28-.35-.54-.72-.8-1.08l-.23-.34c-.25-.37-.49-.74-.72-1.13a1.74,1.74,0,0,1-.11-.18c-.27-.44-.52-.9-.76-1.36,0,0,0-.07-.05-.1h0a26.41,26.41,0,0,1-2.86-12,26.33,26.33,0,0,1-1.09,7.54l0,.13c0,.11-.07.23-.11.34A25.84,25.84,0,0,1,249,481a24.15,24.15,0,0,1-14.88,5.12h-9.22c-.54,0-1.07,0-1.61-.06l-.39,0c-.44,0-.87-.08-1.3-.14l-.31-.05c-.52-.07-1-.17-1.54-.28l-.28-.07c-.42-.09-.83-.2-1.25-.32l-.39-.11c-.46-.14-.92-.3-1.37-.47l-.08,0c-.48-.18-1-.39-1.41-.59l-.36-.18c-.36-.16-.72-.34-1.07-.53l-.33-.17c-.44-.25-.87-.5-1.29-.77l-.23-.15c-.35-.23-.7-.47-1-.71l-.35-.26c-.35-.26-.7-.53-1-.82l-.15-.12c-.38-.32-.75-.67-1.11-1l-.28-.28c-.29-.28-.56-.56-.83-.86l-.26-.28c-.34-.38-.67-.77-1-1.16l-.11-.16c-.28-.35-.55-.72-.81-1.08l-.23-.34c-.25-.37-.49-.74-.72-1.13,0-.06-.08-.12-.11-.18-.27-.44-.52-.9-.75-1.36l-.06-.1h0a26.41,26.41,0,0,1-2.86-12,26.68,26.68,0,0,1-1.08,7.54l0,.13c0,.11-.07.23-.11.34A25.83,25.83,0,0,1,190,481a24.2,24.2,0,0,1-14.89,5.12h-9.21c-.55,0-1.08,0-1.61-.06l-.4,0c-.43,0-.87-.08-1.3-.14l-.31-.05c-.52-.07-1-.17-1.54-.28l-.28-.07c-.41-.09-.83-.2-1.24-.32l-.39-.11c-.47-.14-.93-.3-1.38-.47l-.08,0c-.48-.18-.94-.39-1.41-.59l-.36-.18c-.36-.16-.71-.34-1.07-.53l-.33-.17c-.43-.25-.87-.5-1.29-.77l-.23-.15c-.35-.23-.69-.47-1-.71l-.34-.26c-.36-.26-.7-.53-1-.82l-.15-.12c-.38-.32-.75-.67-1.11-1l-.28-.28c-.28-.28-.56-.56-.83-.86a3.45,3.45,0,0,0-.26-.28c-.33-.38-.66-.77-1-1.16l-.11-.16c-.28-.35-.55-.72-.81-1.08l-.23-.34c-.25-.37-.48-.74-.71-1.13l-.12-.18c-.26-.44-.51-.9-.75-1.36a.47.47,0,0,1-.05-.1h0A26.41,26.41,0,0,1,141,460.36Z"></path><path class="cls-9" d="M149.23,404.68h42.5a8.24,8.24,0,0,1,8.24,8.24v34.59a24.88,24.88,0,0,1-24.88,24.88h-9.22A24.88,24.88,0,0,1,141,447.51V412.92a8.24,8.24,0,0,1,8.24-8.24Z"></path><path class="cls-18" d="M197.12,459.08a24.67,24.67,0,0,1-7.28,1.09h-9.22a24.88,24.88,0,0,1-24.88-24.88V404.68h-6.51a8.23,8.23,0,0,0-8.23,8.24v34.59a24.87,24.87,0,0,0,24.88,24.88h9.21A24.87,24.87,0,0,0,197.12,459.08Z"></path><path class="cls-9" d="M208.21,404.68h42.5a8.24,8.24,0,0,1,8.24,8.24v34.59a24.88,24.88,0,0,1-24.88,24.88h-9.22A24.88,24.88,0,0,1,200,447.51V412.92a8.24,8.24,0,0,1,8.24-8.24Z"></path><path class="cls-18" d="M256.1,459.08a24.73,24.73,0,0,1-7.29,1.09H239.6a24.87,24.87,0,0,1-24.88-24.88V404.68h-6.51a8.24,8.24,0,0,0-8.24,8.24v34.59a24.88,24.88,0,0,0,24.88,24.88h9.22A24.89,24.89,0,0,0,256.1,459.08Z"></path><path class="cls-9" d="M267.19,404.68h42.5a8.24,8.24,0,0,1,8.24,8.24v34.59A24.88,24.88,0,0,1,293,472.39h-9.22a24.88,24.88,0,0,1-24.88-24.88V412.92a8.24,8.24,0,0,1,8.24-8.24Z"></path><path class="cls-18" d="M315.07,459.08a24.62,24.62,0,0,1-7.28,1.09h-9.22a24.88,24.88,0,0,1-24.88-24.88V404.68h-6.5a8.23,8.23,0,0,0-8.24,8.24v34.59a24.88,24.88,0,0,0,24.88,24.88H293A24.87,24.87,0,0,0,315.07,459.08Z"></path><path class="cls-9" d="M326.16,404.68h42.5a8.24,8.24,0,0,1,8.24,8.24v34.59A24.88,24.88,0,0,1,352,472.39h-9.22a24.88,24.88,0,0,1-24.88-24.88V412.92A8.24,8.24,0,0,1,326.16,404.68Z"></path><path class="cls-18" d="M374.05,459.08a24.68,24.68,0,0,1-7.29,1.09h-9.21a24.88,24.88,0,0,1-24.88-24.88V404.68h-6.51a8.24,8.24,0,0,0-8.24,8.24v34.59a24.88,24.88,0,0,0,24.89,24.88H352A24.88,24.88,0,0,0,374.05,459.08Z"></path><path class="cls-8" d="M388.6,37q3.76,2.28,7.44,4.69V67.9H117V41q4.88-3.16,9.91-6.09a253.56,253.56,0,0,1,55.66-24.21A255.83,255.83,0,0,1,388.6,37Z"></path><path class="cls-3" d="M388.6,37a57.93,57.93,0,0,1-12.31,8.44c-1.65.87-3.38,1.72-5.21,2.55h0c-2.52,1.16-5.21,2.27-8.05,3.33A189.4,189.4,0,0,1,340.55,58q-8.43,2-17.79,3.6c-1.58.28-3.17.53-4.79.78h-.1a375.74,375.74,0,0,1-42.16,4c-5.49.21-11.08.33-16.76.33h-.18c-14.37,0-28.22-.71-41.23-2q-9-.92-17.52-2.22a.17.17,0,0,1-.1,0q-2.71-.41-5.36-.86A252.6,252.6,0,0,1,167,55.39a150.18,150.18,0,0,1-20.25-7.3q-2.7-1.23-5.15-2.52c-6.28-3.29-11.24-6.87-14.66-10.67a253.56,253.56,0,0,1,55.66-24.21A255.83,255.83,0,0,1,388.6,37Z"></path><path class="cls-16" d="M430.36,68.55H81.64A258.2,258.2,0,0,1,117,41q4.88-3.16,9.91-6.09a253.56,253.56,0,0,1,55.66-24.21c48.55-2.13,99.5-2.08,147.54.21A254.07,254.07,0,0,1,388.6,37q3.76,2.28,7.44,4.69A258.21,258.21,0,0,1,430.36,68.55Z"></path><path class="cls-17" d="M141,51.11V67.9H376.9V51.11a26.68,26.68,0,0,0-1.08-7.54l0-.13c0-.11-.07-.23-.11-.34a25.8,25.8,0,0,0-8.76-12.65A24.21,24.21,0,0,0,352,25.32h-9.21c-.55,0-1.08,0-1.62.06l-.39,0c-.43,0-.87.08-1.3.15l-.31,0c-.52.07-1,.17-1.54.28l-.28.07c-.41.09-.83.2-1.24.32-.13,0-.26.07-.39.12-.47.14-.93.29-1.38.46l-.08,0c-.48.17-.94.38-1.41.59l-.36.17c-.36.16-.72.34-1.07.53l-.33.17c-.44.25-.87.5-1.29.77l-.23.15c-.35.23-.69.47-1,.71l-.35.26c-.35.26-.7.54-1,.82l-.15.12c-.38.33-.75.67-1.11,1l-.28.28c-.28.28-.56.57-.83.86a3.45,3.45,0,0,1-.26.28c-.33.38-.66.77-1,1.16l-.11.16c-.28.35-.55.72-.81,1.09l-.23.33c-.25.37-.48.75-.72,1.13a1.74,1.74,0,0,1-.11.18c-.27.44-.51.9-.75,1.36l-.05.1h0a26.45,26.45,0,0,0-2.86,12,26.33,26.33,0,0,0-1.08-7.54l0-.13c0-.11-.07-.23-.11-.34a25.73,25.73,0,0,0-8.76-12.65A24.19,24.19,0,0,0,293,25.32h-9.21c-.54,0-1.08,0-1.61.06l-.4,0c-.43,0-.86.08-1.3.15l-.3,0c-.53.07-1,.17-1.55.28l-.27.07c-.42.09-.83.2-1.25.32-.13,0-.26.07-.39.12-.46.14-.93.29-1.38.46,0,0-.05,0-.07,0-.48.17-.95.38-1.41.59l-.36.17c-.37.16-.72.34-1.08.53l-.32.17c-.44.25-.88.5-1.3.77l-.23.15c-.35.23-.69.47-1,.71l-.34.26c-.36.26-.7.54-1.05.82l-.14.12c-.38.33-.76.67-1.12,1a3.7,3.7,0,0,1-.28.28c-.28.28-.55.57-.83.86a3.45,3.45,0,0,1-.26.28c-.33.38-.66.77-1,1.16l-.11.16c-.28.35-.54.72-.8,1.09l-.23.33c-.25.37-.49.75-.72,1.13a1.74,1.74,0,0,0-.11.18c-.27.44-.52.9-.76,1.36l-.05.1h0a26.45,26.45,0,0,0-2.86,12,26.33,26.33,0,0,0-1.09-7.54l0-.13c0-.11-.07-.23-.11-.34A25.82,25.82,0,0,0,249,30.45a24.16,24.16,0,0,0-14.88-5.13h-9.22c-.54,0-1.07,0-1.61.06l-.39,0c-.44,0-.87.08-1.3.15l-.31,0c-.52.07-1,.17-1.54.28l-.28.07c-.42.09-.83.2-1.25.32-.13,0-.26.07-.39.12-.46.14-.92.29-1.37.46,0,0-.06,0-.08,0-.48.17-1,.38-1.41.59l-.36.17c-.36.16-.72.34-1.07.53l-.33.17c-.44.25-.87.5-1.29.77l-.23.15c-.35.23-.7.47-1,.71l-.35.26c-.35.26-.7.54-1,.82l-.15.12c-.38.33-.75.67-1.11,1l-.28.28c-.29.28-.56.57-.83.86l-.26.28c-.34.38-.67.77-1,1.16l-.11.16c-.28.35-.55.72-.81,1.09l-.23.33c-.25.37-.49.75-.72,1.13,0,.06-.08.12-.11.18-.27.44-.52.9-.75,1.36l-.06.1h0a26.45,26.45,0,0,0-2.86,12,26.68,26.68,0,0,0-1.08-7.54l0-.13c0-.11-.07-.23-.11-.34A25.8,25.8,0,0,0,190,30.45a24.21,24.21,0,0,0-14.89-5.13h-9.21c-.55,0-1.08,0-1.61.06l-.4,0c-.43,0-.87.08-1.3.15l-.31,0c-.52.07-1,.17-1.54.28l-.28.07c-.41.09-.83.2-1.24.32-.13,0-.26.07-.39.12-.47.14-.93.29-1.38.46l-.08,0c-.48.17-.94.38-1.41.59l-.36.17c-.36.16-.71.34-1.07.53l-.33.17c-.43.25-.87.5-1.29.77l-.23.15c-.35.23-.69.47-1,.71l-.34.26c-.36.26-.7.54-1,.82l-.15.12c-.38.33-.75.67-1.11,1-.1.1-.18.19-.28.28-.28.28-.56.57-.83.86a3.45,3.45,0,0,1-.26.28c-.33.38-.66.77-1,1.16l-.11.16c-.28.35-.55.72-.81,1.09l-.23.33c-.25.37-.48.75-.71,1.13l-.12.18c-.26.44-.51.9-.75,1.36l-.05.1h0A26.44,26.44,0,0,0,141,51.11Z"></path><path class="cls-9" d="M165.88,39.08h9.22A24.88,24.88,0,0,1,200,64V98.55a8.24,8.24,0,0,1-8.24,8.24h-42.5A8.24,8.24,0,0,1,141,98.55V64A24.88,24.88,0,0,1,165.88,39.08Z"></path><path class="cls-18" d="M197.12,52.39a25,25,0,0,0-7.28-1.09h-9.22a24.88,24.88,0,0,0-24.88,24.88v30.61h-6.51A8.23,8.23,0,0,1,141,98.55V64a24.88,24.88,0,0,1,24.88-24.89h9.21A24.87,24.87,0,0,1,197.12,52.39Z"></path><path class="cls-9" d="M224.85,39.08h9.22A24.88,24.88,0,0,1,258.95,64V98.55a8.24,8.24,0,0,1-8.24,8.24h-42.5A8.24,8.24,0,0,1,200,98.55V64a24.88,24.88,0,0,1,24.88-24.88Z"></path><path class="cls-18" d="M256.1,52.39a25.07,25.07,0,0,0-7.29-1.09H239.6a24.87,24.87,0,0,0-24.88,24.88v30.61h-6.51A8.23,8.23,0,0,1,200,98.55V64a24.88,24.88,0,0,1,24.88-24.89h9.22A24.89,24.89,0,0,1,256.1,52.39Z"></path><path class="cls-9" d="M283.83,39.08H293A24.88,24.88,0,0,1,317.92,64V98.55a8.24,8.24,0,0,1-8.24,8.24h-42.5a8.24,8.24,0,0,1-8.24-8.24V64a24.88,24.88,0,0,1,24.88-24.88Z"></path><path class="cls-18" d="M315.07,52.39a25,25,0,0,0-7.28-1.09h-9.22a24.88,24.88,0,0,0-24.88,24.88v30.61h-6.5A8.23,8.23,0,0,1,259,98.55V64a24.88,24.88,0,0,1,24.88-24.89H293A24.87,24.87,0,0,1,315.07,52.39Z"></path><path class="cls-9" d="M342.81,39.08H352A24.88,24.88,0,0,1,376.9,64V98.55a8.24,8.24,0,0,1-8.24,8.24h-42.5a8.24,8.24,0,0,1-8.24-8.24V64a24.88,24.88,0,0,1,24.88-24.88Z"></path><path class="cls-18" d="M374.05,52.39a25,25,0,0,0-7.29-1.09h-9.21a24.88,24.88,0,0,0-24.88,24.88v30.61h-6.51a8.23,8.23,0,0,1-8.24-8.24V64a24.89,24.89,0,0,1,24.89-24.89H352A24.88,24.88,0,0,1,374.05,52.39Z"></path><path class="cls-9" d="M407.17,219.5h13.5a0,0,0,0,1,0,0V327.08a6.75,6.75,0,0,1-6.75,6.75h0a6.75,6.75,0,0,1-6.75-6.75V219.5A0,0,0,0,1,407.17,219.5Z" transform="matrix(0.96, -0.29, 0.29, 0.96, -62.55, 132.28)"></path><path class="cls-8" d="M421,260h16.71a7.93,7.93,0,0,1,7.93,7.93v42.5a0,0,0,0,1,0,0H421a24.71,24.71,0,0,1-24.71-24.71v-1A24.71,24.71,0,0,1,421,260Z"></path><circle class="cls-19" cx="390.85" cy="203" r="29.05"></circle><circle class="cls-20" cx="390.85" cy="203" r="20.3"></circle><path class="cls-21" d="M390.37,223.29A29,29,0,0,0,401,230.23a29.05,29.05,0,1,1,0-54.46,29.05,29.05,0,0,0-10.63,47.52Z"></path><path class="cls-22" d="M382.1,203a28.9,28.9,0,0,0,8.27,20.29,20.3,20.3,0,0,1,0-40.58A28.9,28.9,0,0,0,382.1,203Z"></path></g></svg>