<svg xmlns="http://www.w3.org/2000/svg" width='60' height='60' viewBox="0 0 512 512"><defs><style>.cls-1{fill:#ffca57;}.cls-2{fill:#ff79ab;}.cls-3{fill:#f95d9c;}.cls-4{fill:#fff;}.cls-5{fill:#d1d2d3;}.cls-6{fill:#29327f;}.cls-7{fill:#3342ae;}.cls-8{fill:#1a9a8e;}.cls-9{fill:#198477;}.cls-10{fill:#b0fff0;}.cls-11{fill:#74e1f3;}.cls-12{fill:#1fb7a2;}.cls-13{fill:#ffeb8d;}.cls-14{fill:#3e4fc7;}</style></defs><title>Dental Care</title><g id="BULINE"><circle class="cls-1" cx="256" cy="256" r="256"></circle></g><g id="Icons"><path class="cls-2" d="M511.6,270.3A255.89,255.89,0,0,1,256,512C119.42,512,7.81,405,.4,270.3Z"></path><path class="cls-3" d="M307.84,270.3q-1.33,2.91-2.82,5.7c-1.37,2.59-2.71,5.19-4,7.82-15.66,31.56-26.06,65.44-29.39,100.55l-.34,3.63a40.48,40.48,0,0,1-42.48,36.6c-20.19-1.06-36.29-17.37-38.19-37.5l-6.8-71.75a11.82,11.82,0,0,0-9.42-10.46l-.16,0a35,35,0,0,0-13.83,0l-.16,0a11.81,11.81,0,0,0-9.42,10.46L143.94,388a40.48,40.48,0,0,1-42.48,36.6c-20.2-1.06-36.29-17.37-38.2-37.5L63,384.37c-3.61-38-15.51-74.62-33.4-108.37q-1.48-2.79-2.82-5.7Z"></path><path class="cls-4" d="M351.19,166.65a127.18,127.18,0,0,1-14.33,59.47c-1.37,2.59-2.71,5.19-4,7.82-15.66,31.56-26.05,65.44-29.39,100.55l-.34,3.63a40.48,40.48,0,0,1-42.47,36.6c-20.19-1.06-36.3-17.37-38.19-37.5l-6.81-71.75A11.81,11.81,0,0,0,206.23,255l-.16,0a35,35,0,0,0-13.83,0l-.16,0a11.82,11.82,0,0,0-9.42,10.46l-6.88,72.65a40.48,40.48,0,0,1-42.48,36.6c-20.19-1.06-36.29-17.37-38.2-37.5l-.25-2.73c-3.61-38-15.5-74.62-33.4-108.37a127.18,127.18,0,0,1-14.33-59.47c0-60.16,39.56-108.94,88.37-108.94a74,74,0,0,1,35.25,9,59.78,59.78,0,0,0,56.83,0,74,74,0,0,1,35.26-9c16.51,0,32,5.58,45.2,15.31C333.88,92,351.19,126.85,351.19,166.65Z"></path><path class="cls-5" d="M159.43,366.91a40.22,40.22,0,0,1-26.13,7.81c-20.19-1.07-36.28-17.37-38.2-37.5l-.25-2.73a282.47,282.47,0,0,0-22.34-85.36q-5-11.7-11.06-23a127.18,127.18,0,0,1-14.33-59.47A131.77,131.77,0,0,1,48,151.41c6-52.95,42.89-93.7,87.5-93.7a72.6,72.6,0,0,1,23.82,4c-37.23,12.8-64.54,54.93-64.54,104.91a127.18,127.18,0,0,0,14.33,59.47c17.89,33.75,29.8,70.35,33.4,108.37l.24,2.73A42,42,0,0,0,159.43,366.91Z"></path><path class="cls-6" d="M79.69,209.45a27.49,27.49,0,0,1-7.18,39.68q-5-11.7-11.06-23a127.18,127.18,0,0,1-14.33-59.47A131.77,131.77,0,0,1,48,151.41a34.78,34.78,0,0,1,5.34-.41,35.17,35.17,0,0,1,26.36,58.45Z"></path><path class="cls-7" d="M351.19,166.65a127.18,127.18,0,0,1-14.33,59.47c-1.37,2.59-2.71,5.19-4,7.82A21.48,21.48,0,0,1,330,200.86a35.53,35.53,0,0,1-7.66-49.36A43.33,43.33,0,0,1,308,73C333.88,92,351.19,126.85,351.19,166.65Z"></path><path class="cls-8" d="M365.21,387.22l48.6,70.36a255.86,255.86,0,0,1-34.05,22.56l-48.33-70-10.24-14.82,19.19-13.26,14.41-10,5.4,7.82Z"></path><circle class="cls-8" cx="280.49" cy="298.88" r="122.38"></circle><path class="cls-9" d="M328.41,381.82A122.16,122.16,0,0,0,375.59,376,122.38,122.38,0,1,1,242.05,182.67a122.42,122.42,0,0,0,86.36,199.15Z"></path><circle class="cls-10" cx="280.49" cy="298.88" r="95.77"></circle><path class="cls-11" d="M328.41,381.82a95.78,95.78,0,0,1-108.53-157.1,122.41,122.41,0,0,0,108.53,157.1Z"></path><circle class="cls-4" cx="299.97" cy="245.84" r="23.48"></circle><circle class="cls-4" cx="321.04" cy="259.82" r="13.3"></circle><path class="cls-6" d="M307.74,261.23a3.67,3.67,0,0,1,.81-5.13l14.24-10.39a3.68,3.68,0,0,1,4.33,5.94L312.87,262A3.67,3.67,0,0,1,307.74,261.23Z"></path><path class="cls-6" d="M311.52,273a3.66,3.66,0,0,1,2.76-5.82l17.6-1a3.67,3.67,0,0,1,.42,7.33l-17.6,1A3.67,3.67,0,0,1,311.52,273Z"></path><path class="cls-6" d="M297.75,254.08a3.7,3.7,0,0,1-.47-3.49l6.34-16.45a3.68,3.68,0,0,1,6.86,2.64l-6.34,16.45a3.67,3.67,0,0,1-6.39.85Z"></path><path class="cls-6" d="M213.09,304a3.74,3.74,0,0,1-.7-2,3.69,3.69,0,0,1,3.46-3.88l17.6-1a3.67,3.67,0,1,1,.42,7.33l-17.6,1A3.67,3.67,0,0,1,213.09,304Z"></path><path class="cls-6" d="M238.13,338.31a3.67,3.67,0,0,1-.46-3.48L244,318.38a3.67,3.67,0,1,1,6.85,2.64l-6.33,16.45a3.68,3.68,0,0,1-4.75,2.1A3.72,3.72,0,0,1,238.13,338.31Z"></path><path class="cls-6" d="M217.34,327.15a3.67,3.67,0,0,1,.81-5.13l14.24-10.39a3.68,3.68,0,0,1,4.33,5.94L222.47,328A3.67,3.67,0,0,1,217.34,327.15Z"></path><path class="cls-6" d="M289.81,316.47l-10.39-14.24a3.68,3.68,0,0,1,5.94-4.33l10.38,14.24a3.67,3.67,0,1,1-5.93,4.33Z"></path><path class="cls-6" d="M260.05,275.66l-10.39-14.24a3.68,3.68,0,0,1,5.94-4.33L266,271.33a3.67,3.67,0,1,1-5.93,4.33Z"></path><path class="cls-6" d="M234.83,291.71l-10.38-14.24a3.67,3.67,0,0,1,5.93-4.33l10.39,14.24a3.68,3.68,0,1,1-5.94,4.33Z"></path><path class="cls-6" d="M267.29,336.22,256.9,322a3.68,3.68,0,0,1,5.94-4.33l10.38,14.24a3.67,3.67,0,1,1-5.93,4.33Z"></path><path class="cls-6" d="M283.49,256.23,273.11,242a3.67,3.67,0,1,1,5.93-4.33l10.39,14.24a3.68,3.68,0,0,1-5.94,4.33Z"></path><path class="cls-6" d="M316,300.74l-10.39-14.25a3.67,3.67,0,1,1,5.94-4.32l10.38,14.24a3.67,3.67,0,1,1-5.93,4.33Z"></path><path class="cls-12" d="M229.93,318.23h0a26.08,26.08,0,0,1-3.61-23.86,23.25,23.25,0,0,1,14.5-14.29,73.94,73.94,0,0,0,35.25-25.71,23.3,23.3,0,0,1,18-9.44,26.16,26.16,0,0,1,21.63,10.74h0a26.08,26.08,0,0,1,4.95,17.25c-.71,10-8.08,18.16-17.77,20.74-13.92,3.71-24.8,12-33,24.48A23.42,23.42,0,0,1,246,328.49,26.1,26.1,0,0,1,229.93,318.23Z"></path><path class="cls-13" d="M241.71,309.65h0a16.28,16.28,0,0,1-2.84-12.28c1-6.34,5.81-11.81,12-14.22a58.78,58.78,0,0,0,25-18.22c4.21-5.21,10.89-8.11,17.23-7.13A16.34,16.34,0,0,1,304,264.26h0a16.18,16.18,0,0,1,1.38,2.27c4.59,9.22-1.61,20.86-12.28,24.25a44.24,44.24,0,0,0-22.9,17c-5.63,7.85-16.4,10.69-24,5.95A15.68,15.68,0,0,1,241.71,309.65Z"></path><path class="cls-7" d="M202.79,148.58a24.89,24.89,0,0,1-3.72-16,14.7,14.7,0,0,0,.09-1.63c0-12.47-15.4-22.58-34.4-22.58s-34.4,10.11-34.4,22.58,15.4,22.57,34.4,22.57h.39c0,7.09,8.76,12.84,19.56,12.84s19.56-5.75,19.56-12.84A9.13,9.13,0,0,0,202.79,148.58Z"></path><path class="cls-14" d="M187.9,184.8a18,18,0,0,1,1.58,1C189,185.42,188.45,185.1,187.9,184.8Z"></path></g></svg>