<svg xmlns="http://www.w3.org/2000/svg" width='60' height='60' viewBox="0 0 512 512"><defs><style>.cls-1{fill:#;}.cls-2{fill:#2a3582;}.cls-3{fill:#f9e9aa;}.cls-4{fill:#fff;}.cls-5{fill:#d1d2d3;}.cls-6{fill:#4461b2;}.cls-7{fill:#3949a8;}.cls-8{fill:#252f6d;}.cls-9{fill:#b0fff0;}</style></defs><title>Dental Care</title><g id="BULINE"><circle class="cls-1" cx="256" cy="256" r="256"></circle></g><g id="Icons"><polygon class="cls-2" points="129.1 293.11 129.1 392.79 7.94 392.79 57.45 343.28 7.28 293.11 129.1 293.11"></polygon><polygon class="cls-2" points="384 293.11 384 392.79 505.17 392.79 455.65 343.28 505.82 293.11 384 293.11"></polygon><path class="cls-3" d="M376.43,111.82c0,4.8-39.27,15.75-37.86,20.08s39.7-9.75,42.42-6-22.6,35.75-18.83,38.49,26.31-31.23,30.8-29.77c4.32,1.4,2.61,42.19,7.4,42.19s3.08-40.79,7.4-42.19c4.49-1.46,27.07,32.49,30.8,29.77S417,129.65,419.74,125.88s41,10.5,42.42,6-37.87-15.28-37.87-20.08,39.27-15.74,37.87-20.07c-1.46-4.48-39.71,9.75-42.42,6S442.33,62,438.56,59.28s-26.31,31.23-30.8,29.77c-4.32-1.4-2.6-42.19-7.4-42.19s-3.08,40.79-7.4,42.19c-4.49,1.46-27.07-32.49-30.8-29.77S383.73,94,381,97.77s-41-10.5-42.42-6C337.16,96.08,376.43,107,376.43,111.82Z"></path><path class="cls-4" d="M419.59,183.64c0-64.52-42.42-116.82-94.76-116.82A79.37,79.37,0,0,0,287,76.5a64.06,64.06,0,0,1-60.94,0,79.34,79.34,0,0,0-37.81-9.68c-52.33,0-94.76,52.3-94.76,116.82a136.35,136.35,0,0,0,15.37,63.77c19.19,36.19,32,75.43,35.81,116.21l.28,2.93c2.05,21.58,19.31,39.07,41,40.22a43.41,43.41,0,0,0,45.55-39.25l7.38-77.91A12.66,12.66,0,0,1,249,278.4l.17,0a37.4,37.4,0,0,1,14.83,0l.17,0a12.65,12.65,0,0,1,10.1,11.21l7.29,76.94c2.05,21.58,19.31,39.07,41,40.22A43.4,43.4,0,0,0,368,367.52l.37-3.9c3.87-40.78,16.63-80,35.81-116.21A136.35,136.35,0,0,0,419.59,183.64Z"></path><path class="cls-5" d="M214,398.39a43.18,43.18,0,0,1-28,8.38c-21.65-1.15-38.91-18.63-41-40.22l-.26-2.92c-3.86-40.78-16.63-80-35.82-116.22a136.34,136.34,0,0,1-15.37-63.76c0-64.53,42.42-116.83,94.76-116.83a77.87,77.87,0,0,1,25.55,4.31C173.89,84.86,144.61,130,144.61,183.65A136.45,136.45,0,0,0,160,247.41c19.2,36.2,32,75.44,35.83,116.22l.26,2.92A45,45,0,0,0,214,398.39Z"></path><path class="cls-4" d="M440.83,228c.05,3.31,7.61,6,17.91,6.74,1,10.32,3.95,17.83,7.27,17.78s6-7.64,6.74-18c10.35-1,17.89-3.95,17.84-7.27s-7.67-6-18-6.74c-1-10.32-4-17.82-7.26-17.77s-6,7.64-6.74,18C448.26,221.81,440.78,224.71,440.83,228Z"></path><path class="cls-4" d="M31.2,154c-1.91,2.71,2.64,9.31,10.55,16-5.21,9-7.25,16.76-4.54,18.66s9.34-2.66,16-10.6c9,5.23,16.81,7.29,18.72,4.57s-2.69-9.37-10.66-16c5.2-9,7.25-16.75,4.53-18.66s-9.34,2.67-16,10.62C40.85,153.3,33.1,151.27,31.2,154Z"></path><path class="cls-4" d="M305.91,436.67c-1.9,2.71,2.64,9.32,10.56,16-5.21,9-7.26,16.76-4.55,18.67s9.34-2.67,16-10.61c9,5.23,16.81,7.3,18.72,4.58s-2.68-9.38-10.66-16c5.21-9,7.25-16.75,4.54-18.66s-9.35,2.67-16,10.62C315.57,436,307.81,434,305.91,436.67Z"></path><path class="cls-4" d="M161.5,436.11c-3.28.45-5,8.27-4.51,18.6-10.12,2.28-17.22,6.08-16.77,9.37s8.3,5,18.66,4.51c2.28,10.15,6.08,17.28,9.38,16.82s5-8.34,4.51-18.73c10.11-2.28,17.2-6.08,16.75-9.36s-8.31-5-18.67-4.51C168.57,442.73,164.78,435.66,161.5,436.11Z"></path><path class="cls-4" d="M250.71,25.1c-1.9,2.71,2.64,9.32,10.56,16-5.22,9-7.26,16.76-4.55,18.67s9.34-2.66,16-10.61c9,5.24,16.81,7.3,18.72,4.58s-2.68-9.37-10.66-16.05C286,28.69,288,20.9,285.32,19s-9.35,2.66-16,10.61C260.37,24.43,252.61,22.39,250.71,25.1Z"></path><rect class="cls-6" x="96.39" y="271.57" width="320.33" height="88.5"></rect><polygon class="cls-7" points="116 326.38 116 271.57 96.39 271.57 96.39 360.07 416.72 360.07 416.72 326.38 116 326.38"></polygon><polygon class="cls-8" points="96.39 360.07 129.1 392.79 129.1 360.07 96.39 360.07"></polygon><polygon class="cls-8" points="416.72 360.07 384 392.79 384 360.07 416.72 360.07"></polygon><path class="cls-9" d="M260.16,280.8l6.7,20.6a3.8,3.8,0,0,0,3.61,2.63h21.67a3.8,3.8,0,0,1,2.23,6.87l-17.53,12.73a3.81,3.81,0,0,0-1.38,4.25l6.7,20.61a3.8,3.8,0,0,1-5.85,4.24L258.79,340a3.8,3.8,0,0,0-4.47,0l-17.53,12.73a3.79,3.79,0,0,1-5.84-4.24l6.69-20.61a3.81,3.81,0,0,0-1.38-4.25L218.73,310.9A3.8,3.8,0,0,1,221,304h21.66a3.78,3.78,0,0,0,3.61-2.63l6.7-20.6A3.79,3.79,0,0,1,260.16,280.8Z"></path><path class="cls-9" d="M355,292.46l4.47,13.74a2.53,2.53,0,0,0,2.41,1.76h14.45a2.53,2.53,0,0,1,1.49,4.58L366.09,321a2.54,2.54,0,0,0-.92,2.84l4.46,13.74a2.54,2.54,0,0,1-3.9,2.84L354,332a2.55,2.55,0,0,0-3,0l-11.69,8.5a2.54,2.54,0,0,1-3.9-2.84l4.47-13.74A2.55,2.55,0,0,0,339,321l-11.7-8.49a2.53,2.53,0,0,1,1.49-4.58h14.46a2.54,2.54,0,0,0,2.41-1.76l4.46-13.74A2.53,2.53,0,0,1,355,292.46Z"></path><path class="cls-9" d="M160.81,292.46l4.46,13.74a2.54,2.54,0,0,0,2.41,1.76h14.46a2.53,2.53,0,0,1,1.49,4.58L171.93,321a2.55,2.55,0,0,0-.92,2.84l4.47,13.74a2.54,2.54,0,0,1-3.9,2.84L159.89,332a2.55,2.55,0,0,0-3,0l-11.69,8.5a2.54,2.54,0,0,1-3.9-2.84l4.46-13.74a2.54,2.54,0,0,0-.92-2.84l-11.69-8.49a2.53,2.53,0,0,1,1.49-4.58h14.45a2.53,2.53,0,0,0,2.41-1.76L156,292.46A2.53,2.53,0,0,1,160.81,292.46Z"></path></g></svg>