<!DOCTYPE svg PUBLIC "-//W3C//DTD SVG 1.1//EN" "http://www.w3.org/Graphics/SVG/1.1/DTD/svg11.dtd">

<!-- Uploaded to: SVG Repo, www.svgrepo.com, Transformed by: SVG Repo Mixer Tools -->
<svg width="24px" height="24px" viewBox="0 0 64 64" xmlns="http://www.w3.org/2000/svg" xmlns:xlink="http://www.w3.org/1999/xlink" aria-hidden="true" role="img" class="iconify iconify--emojione-monotone" preserveAspectRatio="xMidYMid meet" fill="#000000">

<g id="SVGRepo_bgCarrier" stroke-width="0"/>

<g id="SVGRepo_tracerCarrier" stroke-linecap="round" stroke-linejoin="round"/>

<g id="SVGRepo_iconCarrier">

<path d="M14.632 30.707H9.368l14.737 23.925L62 2h-5.264L24.105 37.884z" fill="#ba9e66"/>

<path d="M52.526 54.632c0 .581-.471 1.052-1.053 1.052H9.368a1.053 1.053 0 0 1-1.053-1.052V12.526c0-.582.472-1.053 1.053-1.053h28.794l5.744-6.316H4.105A2.108 2.108 0 0 0 2 7.263v52.631C2 61.059 2.943 62 4.105 62h52.631a2.103 2.103 0 0 0 2.105-2.105V18.996l-6.315 8.773v26.863" fill="#000000"/>

</g>

</svg>