<svg xmlns="http://www.w3.org/2000/svg" width='60' height='60' viewBox="0 0 512 512"><defs><style>.cls-1{fill:#eb3c65;}.cls-2{fill:#ba3256;}.cls-3{fill:#a02e52;}.cls-4{fill:#ff79ab;}.cls-5{fill:#d36a95;}.cls-6{fill:#fff;}.cls-7{fill:#dbdbdd;}.cls-8{fill:#63624b;}.cls-9{fill:#787759;}</style></defs><title>Dental Care</title><g id="BULINE"><path class="cls-1" d="M512,256c0,141.38-114.62,256-256,256S0,397.38,0,256a256.94,256.94,0,0,1,1.57-28.44,256,256,0,0,1,482.27-88.38,254,254,0,0,1,26.59,88.38A256.94,256.94,0,0,1,512,256Z"></path></g><g id="Icons"><path class="cls-1" d="M512,256c0,141.38-114.62,256-256,256S0,397.38,0,256a256.94,256.94,0,0,1,1.57-28.44,254,254,0,0,1,26.59-88.38H483.84a254,254,0,0,1,26.59,88.38A256.94,256.94,0,0,1,512,256Z"></path><ellipse class="cls-2" cx="254.17" cy="275.61" rx="209.02" ry="181.64"></ellipse><path class="cls-3" d="M387,415.84c-36.11,25.87-82.4,41.41-132.85,41.41-115.45,0-209-81.33-209-181.64,0-98.43,90.1-178.59,202.55-181.56-46.51,33.33-76.16,83.77-76.16,140.25,0,100.31,93.58,181.63,209,181.63Q383.8,415.93,387,415.84Z"></path><path class="cls-4" d="M510.43,227.56H1.57a256,256,0,0,1,482.27-88.38A254,254,0,0,1,510.43,227.56Z"></path><path class="cls-5" d="M490.25,195.23v32.33H19.37V195.23a49.41,49.41,0,0,1,2.17-14.53l.07-.25c.07-.21.14-.43.22-.65A49.65,49.65,0,0,1,69,145.56H87.42c1.09,0,2.16.05,3.22.12.27,0,.53,0,.79.06.87.07,1.73.15,2.59.27.21,0,.42.05.62.09,1,.14,2.06.33,3.08.54l.55.13c.83.18,1.66.39,2.49.62l.78.22c.92.27,1.84.57,2.74.9a.49.49,0,0,1,.16.05c1,.34,1.89.73,2.81,1.13l.72.33c.73.32,1.44.67,2.15,1l.65.33c.87.48,1.73,1,2.57,1.48l.47.29c.69.45,1.38.9,2,1.37.23.17.47.33.69.5.71.51,1.4,1,2.08,1.58.1.07.19.16.3.23.76.62,1.5,1.29,2.22,1.95l.56.53c.57.55,1.11,1.09,1.66,1.66.16.19.34.36.52.54.66.74,1.32,1.48,2,2.24.08.09.15.2.22.29.56.69,1.09,1.39,1.61,2.1.16.21.31.44.46.65.5.71,1,1.43,1.44,2.16l.22.36c.53.85,1,1.73,1.5,2.61a1.8,1.8,0,0,0,.11.2h0a49.49,49.49,0,0,1,5.7,23.11,49.74,49.74,0,0,1,2.16-14.53l.08-.25c.07-.21.14-.43.22-.65a49.65,49.65,0,0,1,47.21-34.24h18.38c1.09,0,2.16.05,3.22.12.27,0,.53,0,.79.06.87.07,1.73.15,2.59.27.2,0,.42.05.62.09,1,.14,2.06.33,3.08.54l.55.13c.83.18,1.66.39,2.49.62l.78.22c.92.27,1.84.57,2.74.9a.49.49,0,0,1,.16.05c1,.34,1.89.73,2.81,1.13l.72.33c.72.32,1.43.67,2.14,1l.65.33c.88.48,1.74,1,2.58,1.48l.47.29c.69.45,1.38.9,2.05,1.37.23.17.47.33.69.5.71.51,1.4,1,2.08,1.58.1.07.19.16.3.23.76.62,1.5,1.29,2.22,1.95l.56.53c.57.55,1.11,1.09,1.65,1.66.17.19.35.36.53.54.66.74,1.32,1.48,1.95,2.24.08.09.15.2.22.29.56.69,1.09,1.39,1.61,2.1.16.21.31.44.46.65.5.71,1,1.43,1.43,2.16.08.12.16.24.23.36.53.85,1,1.73,1.5,2.61a1.8,1.8,0,0,0,.11.2h0a49.49,49.49,0,0,1,5.7,23.11A49.74,49.74,0,0,1,257,180.7l.07-.25c.08-.21.15-.43.23-.65a49.65,49.65,0,0,1,47.21-34.24h18.38c1.09,0,2.15.05,3.22.12.27,0,.53,0,.79.06.87.07,1.73.15,2.59.27.2,0,.42.05.62.09,1,.14,2.06.33,3.07.54l.56.13c.83.18,1.66.39,2.48.62l.79.22c.92.27,1.84.57,2.74.9a.38.38,0,0,1,.15.05c1,.34,1.9.73,2.82,1.13l.72.33c.72.32,1.43.67,2.14,1l.65.33c.88.48,1.74,1,2.58,1.48l.46.29c.7.45,1.39.9,2.06,1.37l.69.5c.71.51,1.4,1,2.08,1.58.1.07.19.16.3.23.75.62,1.5,1.29,2.22,1.95l.56.53c.57.55,1.11,1.09,1.65,1.66.17.19.35.36.52.54.67.74,1.33,1.48,2,2.24.08.09.15.2.22.29.56.69,1.09,1.39,1.61,2.1l.46.65c.5.71,1,1.43,1.43,2.16.07.12.16.24.23.36.53.85,1,1.73,1.5,2.61a1.8,1.8,0,0,0,.11.2h0a49.49,49.49,0,0,1,5.7,23.11,49.41,49.41,0,0,1,2.16-14.53l.07-.25c.07-.21.15-.43.23-.65a49.63,49.63,0,0,1,47.2-34.24h18.39c1.09,0,2.15.05,3.22.12.27,0,.53,0,.79.06.86.07,1.73.15,2.59.27.2,0,.42.05.62.09,1,.14,2.06.33,3.07.54l.56.13c.83.18,1.66.39,2.48.62l.78.22c.93.27,1.85.57,2.75.9a.38.38,0,0,1,.15.05c1,.34,1.9.73,2.82,1.13l.72.33c.72.32,1.43.67,2.14,1l.65.33c.88.48,1.74,1,2.58,1.48l.46.29c.7.45,1.39.9,2.06,1.37l.69.5c.71.51,1.39,1,2.08,1.58.09.07.19.16.3.23.75.62,1.5,1.29,2.22,1.95l.56.53c.56.55,1.11,1.09,1.65,1.66.17.19.35.36.52.54.67.74,1.33,1.48,2,2.24.08.09.15.2.22.29.56.69,1.09,1.39,1.61,2.1l.46.65c.5.71,1,1.43,1.43,2.16.07.12.16.24.23.36.53.85,1,1.73,1.5,2.61a1.8,1.8,0,0,0,.11.2h0A49.38,49.38,0,0,1,490.25,195.23Z"></path><path class="cls-6" d="M75.57,172.07H93.31A47.92,47.92,0,0,1,141.23,220v66.61a15.87,15.87,0,0,1-15.87,15.87H43.52a15.87,15.87,0,0,1-15.87-15.87V220A47.92,47.92,0,0,1,75.57,172.07Z"></path><path class="cls-7" d="M135.74,197.69a47.77,47.77,0,0,0-14-2.09H104a47.91,47.91,0,0,0-47.91,47.92v58.94H43.52a15.86,15.86,0,0,1-15.87-15.87V220a47.91,47.91,0,0,1,47.92-47.91H93.31A47.9,47.9,0,0,1,135.74,197.69Z"></path><path class="cls-6" d="M189.15,172.07h17.75A47.92,47.92,0,0,1,254.81,220v66.61a15.87,15.87,0,0,1-15.87,15.87H157.1a15.87,15.87,0,0,1-15.87-15.87V220A47.92,47.92,0,0,1,189.15,172.07Z"></path><path class="cls-7" d="M249.32,197.69a47.82,47.82,0,0,0-14-2.09H217.54a47.91,47.91,0,0,0-47.91,47.92v58.94H157.1a15.86,15.86,0,0,1-15.87-15.87V220a47.91,47.91,0,0,1,47.92-47.91h17.74A47.92,47.92,0,0,1,249.32,197.69Z"></path><path class="cls-6" d="M302.72,172.07h17.75A47.92,47.92,0,0,1,368.39,220v66.61a15.87,15.87,0,0,1-15.87,15.87H270.68a15.87,15.87,0,0,1-15.87-15.87V220A47.92,47.92,0,0,1,302.72,172.07Z"></path><path class="cls-7" d="M362.9,197.69a47.82,47.82,0,0,0-14-2.09H331.12a47.91,47.91,0,0,0-47.92,47.92v58.94H270.67a15.86,15.86,0,0,1-15.86-15.87V220a47.91,47.91,0,0,1,47.91-47.91h17.75A47.92,47.92,0,0,1,362.9,197.69Z"></path><path class="cls-6" d="M416.3,172.07H434A47.92,47.92,0,0,1,482,220v66.61a15.87,15.87,0,0,1-15.87,15.87H384.25a15.87,15.87,0,0,1-15.87-15.87V220A47.92,47.92,0,0,1,416.3,172.07Z"></path><path class="cls-7" d="M476.48,197.69a47.84,47.84,0,0,0-14-2.09H444.7a47.91,47.91,0,0,0-47.92,47.92v58.94H384.25a15.86,15.86,0,0,1-15.86-15.87V220a47.91,47.91,0,0,1,47.91-47.91h17.75A47.93,47.93,0,0,1,476.48,197.69Z"></path><path class="cls-8" d="M482,262.7H27.65a7.24,7.24,0,0,1,0-14.47H482a7.24,7.24,0,0,1,0,14.47Z"></path><rect class="cls-9" x="63.05" y="230.45" width="37.3" height="49.4" rx="7.68"></rect><rect class="cls-8" x="70.27" y="239.88" width="23.06" height="30.53" rx="4.75"></rect><rect class="cls-9" x="176.62" y="230.45" width="37.3" height="49.4" rx="7.68"></rect><rect class="cls-8" x="183.85" y="239.88" width="23.06" height="30.53" rx="4.75"></rect><rect class="cls-9" x="290.2" y="230.45" width="37.3" height="49.4" rx="7.68"></rect><rect class="cls-8" x="297.42" y="239.88" width="23.06" height="30.53" rx="4.75"></rect><rect class="cls-9" x="406.52" y="230.45" width="37.3" height="49.4" rx="7.68"></rect><rect class="cls-8" x="413.75" y="239.88" width="23.06" height="30.53" rx="4.75"></rect><path class="cls-6" d="M411.86,106.08c-1-3-8.74-3.28-18.44-1-4-9.18-8.84-15.23-11.88-14.21s-3.28,8.77-.93,18.49c-9.22,4-15.29,8.87-14.28,11.91s8.82,3.28,18.57.92c4,9.18,8.84,15.22,11.88,14.21s3.28-8.78.93-18.51C406.86,114,412.88,109.11,411.86,106.08Z"></path><path class="cls-6" d="M155.39,149.22c1.83-2.61-2.55-9-10.19-15.4,5-8.65,7-16.16,4.39-18s-9,2.57-15.44,10.23c-8.67-5-16.21-7-18.06-4.41s2.59,9,10.29,15.48c-5,8.64-7,16.15-4.38,18s9-2.57,15.45-10.24C146.07,149.87,153.55,151.83,155.39,149.22Z"></path><path class="cls-6" d="M253.64,382.68c1.83-2.62-2.55-9-10.19-15.4,5-8.65,7-16.17,4.39-18s-9,2.57-15.44,10.23c-8.67-5.05-16.21-7-18.06-4.41s2.59,9,10.29,15.48c-5,8.65-7,16.16-4.38,18s9-2.57,15.44-10.24C244.32,383.33,251.8,385.29,253.64,382.68Z"></path></g></svg>