<svg xmlns="http://www.w3.org/2000/svg" width='60' height='60' viewBox="0 0 512 512"><defs><style>.cls-1{fill:#74e1f3;}.cls-2{fill:#b0fff0;}.cls-3{fill:#fff;}.cls-4{fill:#f99bc1;}.cls-5{fill:#ff79ab;}.cls-6{fill:#eb3c65;}.cls-7{fill:#ce3a61;}.cls-8{fill:#f9ddb6;}.cls-9{fill:#f1cab3;}.cls-10{fill:#f7e1c6;}.cls-11{fill:#eed2c3;}.cls-12{fill:#f8eadf;}.cls-13{fill:#edded5;}.cls-14{fill:#eae0dd;}.cls-15{fill:#ffedcf;}</style></defs><title>Dental Care</title><g id="BULINE"><circle class="cls-1" cx="256" cy="256" r="256"></circle></g><g id="Icons"><path class="cls-2" d="M512,252q-3.66,4.78-7.69,9.23l-1.19,1.3a141.74,141.74,0,0,1-13.73,12.88l-.28.22a138.59,138.59,0,0,1-30.54,18.95h0c-.84.39-1.68.76-2.53,1.12A139,139,0,0,1,401,307a141.22,141.22,0,0,1-14.17-.71A137.31,137.31,0,0,1,372.08,304l-1.13-.23q-5.11-1.12-10.09-2.62h0a136.12,136.12,0,0,1-14.93-5.43,139.71,139.71,0,0,1-43.39-29.35c-1.25-1.25-2.49-2.53-3.7-3.82l-1.19-1.3a140.57,140.57,0,0,1-14.54-19,138.77,138.77,0,0,1-20.38-55.62A139.7,139.7,0,0,1,376.47,30.07,256.8,256.8,0,0,1,496,166.64c1.73-.22,2.88-.15,3.06.42s-.69,1.23-2.16,2A254.92,254.92,0,0,1,512,252Z"></path><path class="cls-3" d="M351.13,94.84c-1.9,2.71,2.64,9.31,10.56,16-5.21,9-7.26,16.76-4.55,18.66s9.34-2.66,16-10.6c9,5.23,16.8,7.29,18.71,4.57s-2.68-9.37-10.66-16.05c5.21-9,7.25-16.74,4.54-18.65s-9.35,2.67-16,10.61C360.79,94.16,353,92.13,351.13,94.84Z"></path><path class="cls-4" d="M511.92,262.56a254.65,254.65,0,0,1-24.81,103.67q-3.17,6.63-6.7,13c2.1,3,2.88,5.5,1.88,6.93s-3.19,1.51-6.31.78a252.37,252.37,0,0,1-16.29,24.09A256.15,256.15,0,0,1,25.46,367.41,254.91,254.91,0,0,1,.08,262.56Z"></path><path class="cls-5" d="M487.11,366.23q-3.17,6.63-6.7,13c2.1,3,2.88,5.5,1.88,6.93s-3.19,1.51-6.31.78a252.37,252.37,0,0,1-16.29,24.09c-50.28,18.44-124.11,30.08-206.41,30.08-78.31,0-149-10.54-198.94-27.45A255.19,255.19,0,0,1,6.7,314.41q5.66-3.72,12.35-7.23c3.25-1.71,6.69-3.39,10.29-5h0a302.3,302.3,0,0,1,40.44-14.59,521.72,521.72,0,0,1,65.89-14.12l.18,0c11.26-1.72,22.95-3.2,35-4.41A822.51,822.51,0,0,1,253.28,265h.35q17,0,33.49.67,7.77.3,15.41.75c24.21,1.41,47.32,3.84,68.87,7.15a.69.69,0,0,1,.2,0c15.94,2.44,31,5.37,45.08,8.73a387.34,387.34,0,0,1,41.85,12.32h0l3,1.12q8.55,3.19,16.13,6.66h0q5.46,2.49,10.4,5.11a135.36,135.36,0,0,1,16.4,10.14A253.7,253.7,0,0,1,487.11,366.23Z"></path><path class="cls-6" d="M511.94,261.26c0,.43,0,.86,0,1.3a254.65,254.65,0,0,1-24.81,103.67q-7.1.84-14.2,1.63-12.15,1.36-24.32,2.55-210.19,20.74-423.13-3A254.91,254.91,0,0,1,.08,262.56c0-.44,0-.87,0-1.3Z"></path><path class="cls-7" d="M17.9,296.12V262.56H489.36v33.56a53,53,0,0,1-2.17,15.07l-.07.26c-.07.22-.14.46-.22.68a51.6,51.6,0,0,1-17.51,25.29,48.38,48.38,0,0,1-29.76,10.24H421.22c-1.09,0-2.15-.05-3.22-.12l-.79-.07c-.87-.07-1.73-.16-2.6-.28l-.61-.08c-1-.15-2.06-.35-3.08-.57l-.56-.13c-.83-.19-1.66-.41-2.49-.64l-.78-.24c-.92-.28-1.85-.59-2.75-.93a.53.53,0,0,1-.15-.05c-1-.35-1.9-.76-2.82-1.18-.24-.11-.49-.22-.72-.34-.72-.33-1.44-.69-2.15-1.07l-.65-.34c-.87-.49-1.74-1-2.58-1.54l-.46-.29c-.7-.47-1.39-.93-2.06-1.43l-.69-.51c-.71-.53-1.4-1.07-2.09-1.65a3.67,3.67,0,0,0-.29-.23c-.76-.65-1.51-1.34-2.23-2l-.56-.55c-.56-.56-1.11-1.13-1.65-1.72l-.52-.56c-.67-.76-1.33-1.54-2-2.32-.08-.1-.15-.21-.22-.31-.56-.71-1.09-1.44-1.62-2.17-.15-.22-.3-.46-.46-.68-.49-.73-1-1.48-1.43-2.24-.07-.13-.15-.25-.23-.37-.53-.89-1-1.8-1.5-2.72,0-.07-.07-.14-.11-.2h0a52.77,52.77,0,0,1-5.71-24,53,53,0,0,1-2.17,15.07l-.07.26c-.07.22-.15.46-.23.68a51.53,51.53,0,0,1-17.51,25.29,48.35,48.35,0,0,1-29.75,10.24H303.36c-1.09,0-2.16-.05-3.22-.12l-.8-.07c-.86-.07-1.73-.16-2.59-.28l-.62-.08c-1-.15-2.06-.35-3.08-.57l-.55-.13c-.83-.19-1.66-.41-2.49-.64-.26-.08-.52-.15-.78-.24-.93-.28-1.85-.59-2.75-.93a.38.38,0,0,1-.15-.05c-1-.35-1.9-.76-2.82-1.18l-.73-.34c-.72-.33-1.43-.69-2.14-1.07-.21-.11-.44-.22-.65-.34-.88-.49-1.74-1-2.58-1.54l-.47-.29c-.7-.47-1.38-.93-2.06-1.43l-.68-.51c-.72-.53-1.4-1.07-2.09-1.65-.09-.07-.19-.16-.3-.23-.75-.65-1.5-1.34-2.22-2l-.56-.55c-.57-.56-1.11-1.13-1.66-1.72-.16-.19-.34-.38-.52-.56-.66-.76-1.33-1.54-2-2.32a3.09,3.09,0,0,1-.23-.31c-.56-.71-1.09-1.44-1.61-2.17l-.46-.68c-.5-.73-1-1.48-1.43-2.24l-.23-.37c-.53-.89-1-1.8-1.5-2.72l-.11-.2h0a52.77,52.77,0,0,1-5.71-24,53,53,0,0,1-2.17,15.07l-.07.26c-.07.22-.14.46-.22.68a51.6,51.6,0,0,1-17.51,25.29,48.38,48.38,0,0,1-29.76,10.24H185.5c-1.09,0-2.16-.05-3.23-.12l-.79-.07c-.87-.07-1.73-.16-2.59-.28l-.62-.08c-1-.15-2.06-.35-3.08-.57l-.56-.13c-.83-.19-1.66-.41-2.48-.64-.27-.08-.53-.15-.79-.24-.92-.28-1.84-.59-2.74-.93a.49.49,0,0,1-.16-.05c-1-.35-1.89-.76-2.82-1.18l-.72-.34c-.72-.33-1.43-.69-2.14-1.07l-.66-.34c-.87-.49-1.74-1-2.58-1.54l-.46-.29c-.7-.47-1.39-.93-2.06-1.43l-.69-.51c-.71-.53-1.4-1.07-2.08-1.65-.1-.07-.19-.16-.3-.23-.76-.65-1.5-1.34-2.23-2l-.55-.55c-.57-.56-1.12-1.13-1.66-1.72l-.52-.56c-.67-.76-1.33-1.54-2-2.32-.08-.1-.15-.21-.22-.31-.56-.71-1.09-1.44-1.61-2.17-.16-.22-.31-.46-.47-.68-.49-.73-1-1.48-1.43-2.24-.07-.13-.15-.25-.22-.37-.54-.89-1-1.8-1.51-2.72l-.1-.2h0a52.77,52.77,0,0,1-5.71-24,53,53,0,0,1-2.17,15.07l-.07.26c-.07.22-.14.46-.23.68a51.58,51.58,0,0,1-17.5,25.29A48.4,48.4,0,0,1,86,347.66H67.63c-1.09,0-2.15-.05-3.22-.12l-.79-.07c-.87-.07-1.73-.16-2.6-.28l-.61-.08c-1-.15-2.07-.35-3.08-.57l-.56-.13c-.83-.19-1.66-.41-2.49-.64-.26-.08-.52-.15-.78-.24-.92-.28-1.85-.59-2.75-.93a.38.38,0,0,1-.15-.05c-1-.35-1.9-.76-2.82-1.18-.24-.11-.49-.22-.72-.34-.73-.33-1.44-.69-2.15-1.07-.21-.11-.44-.22-.65-.34-.88-.49-1.74-1-2.58-1.54l-.46-.29c-.7-.47-1.39-.93-2.07-1.43l-.68-.51c-.71-.53-1.4-1.07-2.09-1.65l-.29-.23c-.76-.65-1.51-1.34-2.23-2l-.56-.55c-.57-.56-1.11-1.13-1.66-1.72-.16-.19-.34-.38-.52-.56-.66-.76-1.32-1.54-1.95-2.32l-.23-.31c-.55-.71-1.09-1.44-1.61-2.17l-.46-.68c-.5-.73-1-1.48-1.43-2.24-.07-.13-.16-.25-.23-.37-.53-.89-1-1.8-1.5-2.72,0-.07-.07-.14-.11-.2h0A52.9,52.9,0,0,1,17.9,296.12Z"></path><path class="cls-8" d="M34.37,184.84H119.3a16.47,16.47,0,0,1,16.47,16.47v69.13A49.72,49.72,0,0,1,86,320.16H67.63A49.72,49.72,0,0,1,17.9,270.43V201.3a16.47,16.47,0,0,1,16.47-16.47Z"></path><path class="cls-9" d="M130.07,293.56a49.61,49.61,0,0,1-14.56,2.17H97.09A49.72,49.72,0,0,1,47.37,246V184.84h-13A16.47,16.47,0,0,0,17.9,201.31v69.12a49.72,49.72,0,0,0,49.73,49.72H86A49.71,49.71,0,0,0,130.07,293.56Z"></path><path class="cls-10" d="M152.23,184.84h84.93a16.47,16.47,0,0,1,16.47,16.47v69.13a49.72,49.72,0,0,1-49.72,49.72H185.49a49.72,49.72,0,0,1-49.72-49.72V201.3a16.47,16.47,0,0,1,16.47-16.47Z"></path><path class="cls-11" d="M247.93,293.56a49.61,49.61,0,0,1-14.56,2.17H215A49.72,49.72,0,0,1,165.23,246V184.84h-13a16.46,16.46,0,0,0-16.46,16.47v69.12a49.72,49.72,0,0,0,49.72,49.72h18.42A49.7,49.7,0,0,0,247.93,293.56Z"></path><path class="cls-12" d="M270.1,184.84H355A16.47,16.47,0,0,1,371.5,201.3v69.13a49.72,49.72,0,0,1-49.72,49.72H303.36a49.72,49.72,0,0,1-49.72-49.72V201.3a16.47,16.47,0,0,1,16.47-16.47Z"></path><path class="cls-13" d="M365.8,293.56a49.66,49.66,0,0,1-14.56,2.17H332.82A49.72,49.72,0,0,1,283.1,246V184.84h-13a16.47,16.47,0,0,0-16.47,16.47v69.12a49.72,49.72,0,0,0,49.73,49.72h18.41A49.72,49.72,0,0,0,365.8,293.56Z"></path><path class="cls-3" d="M388,184.84h84.93a16.47,16.47,0,0,1,16.47,16.47v69.13a49.72,49.72,0,0,1-49.72,49.72H421.22a49.72,49.72,0,0,1-49.72-49.72V201.3A16.47,16.47,0,0,1,388,184.84Z"></path><path class="cls-14" d="M483.66,293.56a49.61,49.61,0,0,1-14.56,2.17H450.69A49.72,49.72,0,0,1,401,246V184.84H388a16.46,16.46,0,0,0-16.46,16.47v69.12a49.71,49.71,0,0,0,49.72,49.72h18.42A49.7,49.7,0,0,0,483.66,293.56Z"></path><path class="cls-15" d="M499,191.16c-.51,1.57-8.53-.68-15.45-2.39-4.95-1.22-9.34-2.16-10-1.22-1.64,2.26,13.57,21.46,11.3,23.1s-15.79-18.75-18.48-17.87-1.57,25.33-4.45,25.33-1.85-24.49-4.44-25.33S441.23,212.29,439,210.65s12.95-20.84,11.3-23.1-24.59,6.3-25.47,3.61c-.44-1.37,5.93-3.86,12-6.32,5.45-2.19,10.69-4.37,10.69-5.73,0-2.88-23.57-9.46-22.73-12.05s23.84,5.85,25.47,3.61-13.56-21.46-11.3-23.11,15.79,18.75,18.49,17.88,1.56-25.33,4.44-25.33,1.85,24.48,4.45,25.33,16.24-19.51,18.48-17.88-12.94,20.85-11.3,23.11c1.29,1.77,15.92-3.2,22.41-4,1.73-.22,2.88-.15,3.06.42s-.69,1.23-2.16,2c-5.69,3.11-20.57,7.73-20.57,10C476.29,182,499.86,188.56,499,191.16Z"></path><path class="cls-3" d="M482.29,386.21c-.92,1.31-3.19,1.51-6.31.78a47.6,47.6,0,0,1-12.41-5.36c-6.66,7.94-13.28,12.51-16,10.61s-.67-9.7,4.54-18.67c-1.26-1.06-2.44-2.12-3.52-3.16-5.68-5.49-8.63-10.52-7-12.8,1.9-2.71,9.65-.68,18.6,4.51,6.66-7.95,13.29-12.52,16-10.62,2.48,1.74,1,8.39-3.25,16.36-.4.75-.83,1.52-1.28,2.3a50.65,50.65,0,0,1,8.78,9.12C482.51,382.29,483.29,384.78,482.29,386.21Z"></path></g></svg>