<svg xmlns="http://www.w3.org/2000/svg" width='60' height='60' viewBox="0 0 512 512"><defs><style>.cls-1{fill:#3342ae;}.cls-2{fill:#5766ce;}.cls-3{fill:#8dc5dc;}.cls-4{fill:#b8e5f2;}.cls-5{fill:#afafac;}.cls-6{fill:#d2d2c8;}.cls-7{fill:#65c7d1;}.cls-8{fill:#74e1f3;}.cls-9{fill:#c1c1b9;}.cls-10{fill:#5db6ba;}.cls-11{fill:#6cd3dd;}.cls-12{fill:#c2f9ff;}.cls-13{fill:#b3e2e5;}.cls-14{fill:#fff;}.cls-15{fill:#d6d6d4;}</style></defs><title>Dental Care</title><g id="BULINE"><circle class="cls-1" cx="256" cy="256" r="256"></circle></g><g id="Icons"><path class="cls-2" d="M489.52,151A235.33,235.33,0,0,1,352.34,352.7a233,233,0,0,1-66.79,19.14,236.35,236.35,0,0,1-30.75,2c-1.56,0-3.11,0-4.66,0q-11.89-.23-23.48-1.62a233.38,233.38,0,0,1-76.79-23A235.4,235.4,0,0,1,20.38,155.75C59.39,64.19,150.2,0,256,0A255.31,255.31,0,0,1,441.93,80l10.27-7L438.29,50.65A7.5,7.5,0,1,1,451,42.73l17.73,28.5a7.5,7.5,0,0,1-2.16,10.16L452,91.31A256.26,256.26,0,0,1,489.52,151Z"></path><path class="cls-3" d="M123.14,84.85C105.76,95.21,95,114.93,95,136.34V253.4a36,36,0,0,0,11.07,26.23v32.43H137V84.84c0-3.71-3.69-6-6.7-4.26Z"></path><path class="cls-4" d="M137,84.84V90c-13.13,11-21,28.1-21,46.39V253.41a36,36,0,0,0,11.07,26.22v32.43h-21V279.63A36,36,0,0,1,95,253.41V136.34c0-21.41,10.78-41.13,28.16-51.49l7.14-4.26C133.29,78.79,137,81.14,137,84.84Z"></path><rect class="cls-5" x="241.01" y="213.84" width="30.18" height="100.61"></rect><circle class="cls-6" cx="256.1" cy="125.98" r="97.42"></circle><circle class="cls-7" cx="256.1" cy="125.98" r="80.07"></circle><path class="cls-8" d="M324.15,126a68,68,0,0,1-78.36,67.24,67.85,67.85,0,0,1-36-17.42A68,68,0,1,1,317.68,97a66.69,66.69,0,0,1,5.68,18.64A67.61,67.61,0,0,1,324.15,126Z"></path><path class="cls-9" d="M260.3,205.94A96.89,96.89,0,0,0,286,218.72a97.43,97.43,0,1,1,0-185.46A96.77,96.77,0,0,0,260.31,46a97.32,97.32,0,0,0-41.73,77.54c0,.81,0,1.62,0,2.43A97.41,97.41,0,0,0,234.8,179.9a97.8,97.8,0,0,0,25.5,26Z"></path><path class="cls-10" d="M245.41,193.17a98.14,98.14,0,0,0,14.89,12.77c-1.39.07-2.79.11-4.2.11a80.07,80.07,0,1,1,0-160.14c1.41,0,2.82,0,4.21.11a97.32,97.32,0,0,0-41.73,77.54c0,.81,0,1.62,0,2.43A97.41,97.41,0,0,0,234.8,179.9,98.45,98.45,0,0,0,245.41,193.17Z"></path><path class="cls-11" d="M234.8,179.9a98.45,98.45,0,0,0,10.61,13.27,67.84,67.84,0,0,1-35.61-17.36,68,68,0,0,1,35.63-117,97.14,97.14,0,0,0-26.85,64.79c0,.81,0,1.62,0,2.43A97.41,97.41,0,0,0,234.8,179.9Z"></path><path class="cls-12" d="M305.94,79.67,209.8,175.81a68,68,0,0,1-17.46-26l87.57-87.56A67.8,67.8,0,0,1,305.94,79.67Z"></path><path class="cls-12" d="M323.36,115.66l-77.57,77.57a66.56,66.56,0,0,1-18.64-5.68L317.68,97A66.69,66.69,0,0,1,323.36,115.66Z"></path><path class="cls-13" d="M224.92,160.69,209.8,175.81a68,68,0,0,1-17.46-26l26.24-26.23c0,.81,0,1.62,0,2.43A96.92,96.92,0,0,0,224.92,160.69Z"></path><path class="cls-13" d="M245.41,193.17a66.38,66.38,0,0,1-18.26-5.62l7.65-7.65A98.45,98.45,0,0,0,245.41,193.17Z"></path><path class="cls-14" d="M285.55,327.61v182.7A257.55,257.55,0,0,1,256,512c-2,0-3.91,0-5.86-.07q-11.88-.26-23.48-1.59V327.61a29.46,29.46,0,0,1,29.45-29.45c.51,0,1,0,1.51,0h.05c.45,0,.9.06,1.35.1l.18,0c.45.05.88.1,1.32.17l.2,0,1.32.24c.38.08.76.16,1.14.26l.32.08c.36.09.7.19,1.05.3a2.26,2.26,0,0,1,.37.11c.23.07.46.14.68.23a8.15,8.15,0,0,1,.83.29c.47.17.95.36,1.41.57h0a27.18,27.18,0,0,1,3.35,1.73,29.41,29.41,0,0,1,14.35,25.28Z"></path><path class="cls-15" d="M250.14,511.93q-11.88-.26-23.48-1.59V327.61a29.46,29.46,0,0,1,29.45-29.45c.51,0,1,0,1.51,0h.05c.45,0,.9.06,1.35.1l.18,0c.45.05.88.1,1.32.17l.2,0,1.32.24c.38.08.76.16,1.14.26l.32.08c.36.09.7.19,1.05.3a2.26,2.26,0,0,1,.37.11c.23.07.46.14.68.23a8.15,8.15,0,0,1,.83.29c.47.17.95.36,1.41.57a29.52,29.52,0,0,0-14.6,13.86,29.18,29.18,0,0,0-3.1,13.15Z"></path><path class="cls-14" d="M149.87,327.61V489a255,255,0,0,1-35.42-19.68A258.85,258.85,0,0,1,91,451.72V327.61a29.42,29.42,0,0,1,15.07-25.69h0a29.26,29.26,0,0,1,14.38-3.75c.5,0,1,0,1.51,0h0c.45,0,.9.06,1.35.1l.18,0q.7.07,1.38.18l.14,0c.44.07.88.15,1.31.24l.7.16c.26.05.52.11.77.18.45.12.91.25,1.35.39s.66.2,1,.33c.61.2,1.2.43,1.79.68a1.51,1.51,0,0,1,.22.11,28.52,28.52,0,0,1,4.82,2.65,29.5,29.5,0,0,1,12.89,24.35Z"></path><path class="cls-15" d="M132.17,300.6h0a28.7,28.7,0,0,0-5.11,2.86,29.4,29.4,0,0,0-12.6,23.88v142A258.85,258.85,0,0,1,91,451.72V327.61a29.42,29.42,0,0,1,15.07-25.69h0a29.26,29.26,0,0,1,14.38-3.75c.5,0,1,0,1.51,0h0c.45,0,.9.06,1.35.1l.18,0q.7.07,1.38.18l.14,0c.44.07.88.15,1.31.24l.7.16c.26.05.52.11.77.18.45.12.91.25,1.35.39s.66.2,1,.33c.61.2,1.2.43,1.79.68Z"></path><path class="cls-3" d="M349.27,474.44l-13.28-3a29.4,29.4,0,0,1,12.8-57.39,6.11,6.11,0,0,0,7.29-4.62l4.92-22.1a7.5,7.5,0,1,1,14.64,3.27l-4.92,22.09a21.14,21.14,0,0,1-25.2,16,14.39,14.39,0,1,0-6.26,28.1l13.28,3a7.5,7.5,0,0,1-3.27,14.64Z"></path><path class="cls-3" d="M466.59,81.39,452,91.31,440.67,99l-7.56,33.93a7.5,7.5,0,1,1-14.64-3.26h0l8.21-36.82a7.44,7.44,0,0,1,3.1-4.57L441.93,80l10.27-7L438.29,50.65A7.5,7.5,0,1,1,451,42.73l17.73,28.5A7.5,7.5,0,0,1,466.59,81.39Z"></path><rect class="cls-14" x="372.34" y="149.9" width="47" height="231.38" transform="translate(67.29 -79.79) rotate(12.57)"></rect><rect class="cls-15" x="268.69" y="251.28" width="231.38" height="23.5" transform="translate(44 580.94) rotate(-77.43)"></rect><path class="cls-5" d="M344.82,378.24h47a0,0,0,0,1,0,0V392a7.76,7.76,0,0,1-7.76,7.76H352.58a7.76,7.76,0,0,1-7.76-7.76V378.24a0,0,0,0,1,0,0Z" transform="translate(93.49 -70.84) rotate(12.57)"></path><path class="cls-5" d="M407.7,131.05h31.48a7.76,7.76,0,0,1,7.76,7.76v13.76a0,0,0,0,1,0,0h-47a0,0,0,0,1,0,0V138.81a7.76,7.76,0,0,1,7.76-7.76Z" transform="translate(41.01 -88.76) rotate(12.57)"></path></g></svg>