<svg xmlns="http://www.w3.org/2000/svg" width='60' height='60' viewBox="0 0 512 512"><defs><style>.cls-1{fill:#3342ae;}.cls-2{fill:#5766ce;}.cls-3{fill:#f2bc88;}.cls-4{fill:#e3a76d;}.cls-5{fill:#ff79ab;}.cls-6{fill:#d36a95;}.cls-7{fill:#fff;}.cls-8{fill:#dbdbdd;}.cls-9{fill:#ffca57;}.cls-10{fill:#1fb7a2;}.cls-11{fill:#1e9b86;}.cls-12{fill:#1b8772;}</style></defs><title>Dental Care</title><g id="BULINE"><circle class="cls-1" cx="256" cy="256" r="256"></circle></g><g id="Icons"><circle class="cls-2" cx="132.92" cy="130.25" r="57.03"></circle><circle class="cls-2" cx="266.8" cy="159.47" r="32.43"></circle><circle class="cls-2" cx="456.43" cy="159.47" r="17.29"></circle><circle class="cls-2" cx="374.07" cy="73.22" r="17.29"></circle><path class="cls-3" d="M508.43,298.78a254.61,254.61,0,0,1-44.37,106.4A256.16,256.16,0,0,1,16.43,346.42,252.9,252.9,0,0,1,3.57,298.78Z"></path><path class="cls-4" d="M495.56,346.43a256.61,256.61,0,0,1-88.31,116.13c-43.34,9.23-95.34,14.61-151.26,14.61s-107.89-5.38-151.23-14.61A256.77,256.77,0,0,1,16.43,346.42q2.7-1.56,5.61-3.08,4.88-2.56,10.27-5A301.52,301.52,0,0,1,72.7,323.76c2.2-.64,4.42-1.27,6.68-1.88q6.56-1.77,13.46-3.42l1.56-.37c2-.46,4-.92,6-1.36q8.25-1.85,16.93-3.48,10.32-2,21.19-3.6l.18,0c11.25-1.72,22.93-3.19,35-4.41q14.66-1.48,30-2.44c13.34-.83,27-1.34,41-1.53q5.64-.08,11.34-.07h.35q17,0,33.44.66a752.43,752.43,0,0,1,84.2,7.9l.19,0c15.92,2.45,31,5.38,45,8.72a381.83,381.83,0,0,1,44.87,13.44q8.54,3.19,16.11,6.65,5.47,2.49,10.4,5.12Q493.15,345,495.56,346.43Z"></path><path class="cls-5" d="M508.65,297.48c-.06.43-.14.87-.22,1.3a254.61,254.61,0,0,1-44.37,106.4q-45.76,4.83-91.67,7.51-4,.24-8,.44-31.55,1.74-63.17,2.45c-3.22.07-6.43.14-9.65.19h0q-76,1.37-152.29-3-15.72-.9-31.47-2-29.76-2.16-59.59-5.16A254.29,254.29,0,0,1,3.57,298.78c-.08-.43-.16-.87-.22-1.3Z"></path><path class="cls-6" d="M20.88,332.3V298.78H491.79V332.3a53,53,0,0,1-2.16,15.06l-.07.25c-.07.22-.14.46-.23.68a51.46,51.46,0,0,1-17.48,25.26,48.31,48.31,0,0,1-29.73,10.23H423.74c-1.09,0-2.16,0-3.22-.13-.27,0-.53,0-.79-.06-.87-.07-1.73-.16-2.6-.28l-.61-.08c-1-.15-2.06-.35-3.08-.57l-.55-.13c-.83-.19-1.66-.41-2.49-.64l-.78-.23c-.92-.29-1.84-.59-2.74-.94a.49.49,0,0,1-.16-.05c-1-.35-1.89-.76-2.81-1.17-.24-.11-.49-.22-.73-.35-.72-.33-1.43-.68-2.14-1.06-.21-.11-.43-.22-.65-.35-.87-.49-1.74-1-2.58-1.53l-.46-.29c-.7-.47-1.38-.94-2.06-1.43l-.68-.51c-.71-.53-1.4-1.07-2.09-1.64l-.29-.24c-.76-.65-1.5-1.33-2.23-2l-.55-.55c-.57-.57-1.11-1.13-1.66-1.72a6.89,6.89,0,0,0-.52-.56c-.66-.76-1.32-1.54-1.95-2.32l-.23-.31c-.55-.71-1.08-1.43-1.61-2.17-.15-.22-.3-.45-.46-.67-.49-.74-1-1.49-1.43-2.25-.07-.12-.15-.24-.22-.37-.54-.88-1-1.79-1.51-2.71l-.1-.2h0a52.8,52.8,0,0,1-5.7-23.95,53,53,0,0,1-2.17,15.06l-.07.25c-.07.22-.14.46-.22.68a51.54,51.54,0,0,1-17.49,25.26,48.28,48.28,0,0,1-29.72,10.23H306c-1.09,0-2.15,0-3.22-.13-.27,0-.53,0-.79-.06-.87-.07-1.73-.16-2.59-.28l-.62-.08c-1-.15-2.06-.35-3.07-.57l-.56-.13c-.83-.19-1.66-.41-2.49-.64l-.78-.23c-.92-.29-1.84-.59-2.74-.94a.49.49,0,0,1-.16-.05c-.95-.35-1.89-.76-2.81-1.17-.24-.11-.49-.22-.72-.35-.73-.33-1.43-.68-2.14-1.06-.22-.11-.44-.22-.66-.35-.87-.49-1.73-1-2.58-1.53l-.46-.29c-.69-.47-1.38-.94-2.06-1.43l-.68-.51c-.71-.53-1.4-1.07-2.08-1.64l-.3-.24c-.76-.65-1.5-1.33-2.22-2l-.56-.55c-.57-.57-1.11-1.13-1.66-1.72a6.89,6.89,0,0,0-.52-.56c-.66-.76-1.32-1.54-2-2.32-.08-.1-.15-.21-.22-.31-.56-.71-1.09-1.43-1.61-2.17-.16-.22-.31-.45-.46-.67q-.75-1.11-1.44-2.25c-.07-.12-.15-.24-.22-.37-.53-.88-1-1.79-1.5-2.71l-.11-.2h0a52.8,52.8,0,0,1-5.7-23.95,53,53,0,0,1-2.17,15.06l-.07.25c-.07.22-.14.46-.22.68a51.54,51.54,0,0,1-17.49,25.26,48.28,48.28,0,0,1-29.72,10.23H188.28c-1.09,0-2.15,0-3.22-.13-.27,0-.53,0-.79-.06-.86-.07-1.73-.16-2.59-.28l-.62-.08c-1-.15-2.06-.35-3.07-.57l-.56-.13c-.83-.19-1.66-.41-2.48-.64l-.78-.23c-.93-.29-1.85-.59-2.75-.94a.38.38,0,0,1-.15-.05c-1-.35-1.9-.76-2.82-1.17-.24-.11-.48-.22-.72-.35-.72-.33-1.43-.68-2.14-1.06-.22-.11-.44-.22-.65-.35-.88-.49-1.74-1-2.58-1.53l-.46-.29c-.7-.47-1.39-.94-2.06-1.43l-.69-.51c-.71-.53-1.4-1.07-2.08-1.64l-.3-.24c-.76-.65-1.5-1.33-2.22-2l-.56-.55c-.57-.57-1.11-1.13-1.65-1.72-.17-.2-.35-.38-.53-.56-.66-.76-1.32-1.54-1.95-2.32-.08-.1-.15-.21-.22-.31-.56-.71-1.09-1.43-1.61-2.17-.16-.22-.31-.45-.46-.67-.5-.74-1-1.49-1.43-2.25-.08-.12-.16-.24-.23-.37-.53-.88-1-1.79-1.5-2.71,0-.07-.07-.14-.11-.2h0a52.8,52.8,0,0,1-5.7-23.95,53,53,0,0,1-2.17,15.06l-.07.25c-.07.22-.14.46-.22.68a51.48,51.48,0,0,1-17.49,25.26,48.26,48.26,0,0,1-29.72,10.23H70.55c-1.09,0-2.15,0-3.22-.13-.27,0-.53,0-.79-.06-.86-.07-1.73-.16-2.59-.28l-.61-.08c-1.05-.15-2.06-.35-3.08-.57l-.56-.13c-.83-.19-1.65-.41-2.48-.64l-.78-.23c-.93-.29-1.85-.59-2.75-.94a.44.44,0,0,1-.15-.05c-1-.35-1.89-.76-2.82-1.17-.23-.11-.48-.22-.72-.35-.72-.33-1.43-.68-2.14-1.06-.21-.11-.44-.22-.65-.35-.88-.49-1.74-1-2.58-1.53l-.46-.29c-.7-.47-1.39-.94-2.06-1.43l-.69-.51c-.71-.53-1.39-1.07-2.08-1.64l-.3-.24c-.75-.65-1.5-1.33-2.22-2l-.56-.55c-.56-.57-1.11-1.13-1.65-1.72-.17-.2-.35-.38-.52-.56-.67-.76-1.33-1.54-2-2.32-.08-.1-.15-.21-.22-.31-.56-.71-1.09-1.43-1.61-2.17l-.46-.67c-.5-.74-1-1.49-1.43-2.25-.07-.12-.16-.24-.23-.37-.53-.88-1-1.79-1.5-2.71,0-.07-.07-.14-.11-.2h0A52.68,52.68,0,0,1,20.88,332.3Z"></path><path class="cls-7" d="M37.33,221.15h84.83a16.45,16.45,0,0,1,16.45,16.45v69a49.67,49.67,0,0,1-49.67,49.67H70.55a49.67,49.67,0,0,1-49.67-49.67v-69a16.45,16.45,0,0,1,16.45-16.45Z"></path><path class="cls-8" d="M132.92,329.74a49.53,49.53,0,0,1-14.54,2.17H100a49.66,49.66,0,0,1-49.67-49.66v-61.1h-13A16.44,16.44,0,0,0,20.88,237.6v69A49.66,49.66,0,0,0,70.55,356.3H88.94A49.63,49.63,0,0,0,132.92,329.74Z"></path><path class="cls-7" d="M155.06,221.15h84.83a16.45,16.45,0,0,1,16.45,16.45v69a49.67,49.67,0,0,1-49.67,49.67h-18.4a49.67,49.67,0,0,1-49.67-49.67v-69a16.45,16.45,0,0,1,16.45-16.45Z"></path><path class="cls-8" d="M250.65,329.74a49.54,49.54,0,0,1-14.55,2.17H217.71A49.66,49.66,0,0,1,168,282.25v-61.1h-13a16.44,16.44,0,0,0-16.45,16.45v69a49.66,49.66,0,0,0,49.67,49.66h18.39A49.64,49.64,0,0,0,250.65,329.74Z"></path><path class="cls-7" d="M272.79,221.15h84.83a16.45,16.45,0,0,1,16.45,16.45v69a49.67,49.67,0,0,1-49.67,49.67H306a49.67,49.67,0,0,1-49.67-49.67v-69a16.45,16.45,0,0,1,16.45-16.45Z"></path><path class="cls-8" d="M368.38,329.74a49.54,49.54,0,0,1-14.55,2.17H335.44a49.66,49.66,0,0,1-49.67-49.66v-61.1h-13a16.44,16.44,0,0,0-16.44,16.45v69A49.66,49.66,0,0,0,306,356.3h18.4A49.66,49.66,0,0,0,368.38,329.74Z"></path><path class="cls-7" d="M390.51,221.15h84.83a16.45,16.45,0,0,1,16.45,16.45v69a49.67,49.67,0,0,1-49.67,49.67h-18.4a49.67,49.67,0,0,1-49.67-49.67v-69a16.45,16.45,0,0,1,16.45-16.45Z"></path><path class="cls-8" d="M486.1,329.74a49.48,49.48,0,0,1-14.54,2.17h-18.4a49.66,49.66,0,0,1-49.66-49.66v-61.1h-13a16.44,16.44,0,0,0-16.44,16.45v69a49.66,49.66,0,0,0,49.66,49.66h18.4A49.63,49.63,0,0,0,486.1,329.74Z"></path><path class="cls-9" d="M93.55,424.7c1,3.14,9.06,3.4,19.11,1,4.12,9.52,9.17,15.79,12.31,14.74s3.41-9.09,1-19.17c9.55-4.13,15.85-9.19,14.8-12.34s-9.13-3.41-19.24-1c-4.12-9.52-9.17-15.78-12.32-14.73s-3.4,9.1-1,19.18C98.74,416.53,92.5,421.56,93.55,424.7Z"></path><path class="cls-7" d="M359.39,380c-1.9,2.71,2.64,9.31,10.56,16-5.21,9-7.26,16.75-4.54,18.66s9.34-2.66,16-10.6c9,5.23,16.8,7.29,18.71,4.57s-2.68-9.37-10.66-16.05c5.21-9,7.25-16.74,4.54-18.65s-9.35,2.67-16,10.61C369.05,379.31,361.29,377.28,359.39,380Z"></path><path class="cls-7" d="M391.77,145.21c-1.9,2.71,2.64,9.31,10.56,16-5.22,9-7.26,16.76-4.55,18.66s9.34-2.66,16-10.6c9,5.23,16.81,7.29,18.72,4.57s-2.68-9.37-10.66-16.05c5.21-9,7.25-16.74,4.54-18.65s-9.35,2.67-16,10.61C401.43,144.53,393.67,142.5,391.77,145.21Z"></path><path class="cls-7" d="M153.47,67.46c-1.9,2.71,2.64,9.32,10.55,16-5.21,9-7.25,16.76-4.54,18.67s9.34-2.67,16-10.61c9,5.24,16.81,7.3,18.72,4.58s-2.69-9.38-10.66-16c5.2-9,7.25-16.75,4.53-18.65S178.73,64,172.07,72C163.13,66.78,155.37,64.75,153.47,67.46Z"></path><path class="cls-9" d="M222.32,155.88c-3.25-.63-7.43,6.21-10.28,16.14-10.31-1.1-18.26.2-18.89,3.46s6.24,7.44,16.2,10.29c-1.11,10.34.19,18.32,3.45,18.95s7.47-6.26,10.31-16.27c10.31,1.1,18.25-.2,18.89-3.46s-6.25-7.44-16.22-10.29C226.87,164.42,225.57,156.51,222.32,155.88Z"></path><path class="cls-10" d="M129.52,154.71C143.29,168.47,148,186.12,140,194.13s-25.66,3.34-39.42-10.43C90,173.14,89.47,155.59,89.81,148a4.19,4.19,0,0,1,4-4C101.41,143.65,119,144.15,129.52,154.71Z"></path><path class="cls-11" d="M143.35,178.48c1.27,6.37.24,12-3.4,15.65-8,8-25.65,3.34-39.42-10.43C90,173.14,89.47,155.58,89.82,148a4.15,4.15,0,0,1,2.42-3.61c.86,8.2,3.44,18.21,10.41,25.19C116.42,183.32,134.07,188,142.07,180A11.49,11.49,0,0,0,143.35,178.48Z"></path><path class="cls-12" d="M137.41,191.59a3,3,0,0,1-4.24,0L97.88,156.3a3,3,0,0,1,4.24-4.24l35.29,35.29A3,3,0,0,1,137.41,191.59Z"></path><path class="cls-10" d="M473.93,231.31c0,19.47-9.18,35.26-20.5,35.26s-20.5-15.79-20.5-35.26c0-14.93,12.06-27.69,17.68-32.83a4.18,4.18,0,0,1,5.64,0C461.87,203.62,473.93,216.38,473.93,231.31Z"></path><path class="cls-11" d="M466.9,257.9c-3.61,5.4-8.32,8.66-13.47,8.66-11.32,0-20.5-15.78-20.5-35.25,0-14.93,12.06-27.7,17.68-32.83a4.17,4.17,0,0,1,4.27-.84c-5.19,6.4-10.45,15.31-10.45,25.17,0,19.47,9.18,35.25,20.5,35.25A11.81,11.81,0,0,0,466.9,257.9Z"></path><path class="cls-12" d="M453.43,263a3,3,0,0,1-3-3V210.06a3,3,0,0,1,6,0V260A3,3,0,0,1,453.43,263Z"></path><path class="cls-10" d="M344.11,178.44c-13.77,13.77-31.42,18.44-39.43,10.43s-3.33-25.65,10.43-39.42c10.56-10.56,28.12-11,35.72-10.71a4.17,4.17,0,0,1,4,4C355.16,150.33,354.66,167.89,344.11,178.44Z"></path><path class="cls-11" d="M320.33,192.28c-6.37,1.26-12,.24-15.65-3.41-8-8-3.33-25.65,10.43-39.42,10.56-10.55,28.12-11.06,35.72-10.71a4.15,4.15,0,0,1,3.61,2.43c-8.19.85-18.21,3.43-25.18,10.4C315.49,165.34,310.82,183,318.83,191A13.15,13.15,0,0,0,320.33,192.28Z"></path><path class="cls-12" d="M307.22,186.34a3,3,0,0,1,0-4.25l35.3-35.29a3,3,0,0,1,4.24,4.24l-35.29,35.3A3,3,0,0,1,307.22,186.34Z"></path><path class="cls-10" d="M307.8,50.06c0,19.47-9.18,35.25-20.5,35.25s-20.5-15.78-20.5-35.25c0-14.93,12.06-27.7,17.68-32.83a4.16,4.16,0,0,1,5.64,0C295.74,22.36,307.8,35.13,307.8,50.06Z"></path><path class="cls-11" d="M300.77,76.65c-3.61,5.4-8.32,8.66-13.47,8.66-11.32,0-20.5-15.78-20.5-35.25,0-14.93,12.06-27.7,17.68-32.83a4.17,4.17,0,0,1,4.27-.84c-5.19,6.4-10.45,15.31-10.45,25.17,0,19.47,9.18,35.25,20.5,35.25A11.81,11.81,0,0,0,300.77,76.65Z"></path><path class="cls-12" d="M287.3,81.72a3,3,0,0,1-3-3V28.81a3,3,0,0,1,6,0V78.72A3,3,0,0,1,287.3,81.72Z"></path><path class="cls-10" d="M117.9,305.07c0,19.46-9.18,35.25-20.5,35.25s-20.5-15.79-20.5-35.25c0-14.94,12.06-27.7,17.68-32.84a4.18,4.18,0,0,1,5.64,0C105.84,277.37,117.9,290.13,117.9,305.07Z"></path><path class="cls-11" d="M110.87,331.66c-3.61,5.4-8.32,8.66-13.47,8.66-11.32,0-20.5-15.78-20.5-35.25,0-14.93,12.06-27.7,17.68-32.83a4.17,4.17,0,0,1,4.27-.84c-5.19,6.4-10.45,15.31-10.45,25.17,0,19.47,9.18,35.25,20.5,35.25A11.81,11.81,0,0,0,110.87,331.66Z"></path><path class="cls-12" d="M97.4,336.73a3,3,0,0,1-3-3V283.82a3,3,0,0,1,6,0v49.91A3,3,0,0,1,97.4,336.73Z"></path><path class="cls-10" d="M296.5,372.9c13.77,13.76,18.44,31.41,10.43,39.42s-25.65,3.33-39.42-10.43c-10.56-10.56-11.06-28.11-10.72-35.72a4.18,4.18,0,0,1,4-4C268.39,361.84,285.94,362.34,296.5,372.9Z"></path><path class="cls-11" d="M310.33,396.67c1.27,6.37.24,12-3.4,15.65-8,8-25.65,3.33-39.42-10.43-10.56-10.56-11.06-28.12-10.71-35.72a4.16,4.16,0,0,1,2.42-3.61c.86,8.19,3.44,18.21,10.41,25.18,13.77,13.77,31.42,18.44,39.42,10.43A10.79,10.79,0,0,0,310.33,396.67Z"></path><path class="cls-12" d="M304.39,409.78a3,3,0,0,1-4.24,0l-35.29-35.29a3,3,0,0,1,4.24-4.25l35.29,35.3A3,3,0,0,1,304.39,409.78Z"></path></g></svg>