<svg xmlns="http://www.w3.org/2000/svg" width='60' height='60' viewBox="0 0 512 512"><defs><style>.cls-1{fill:#eb3c65;}.cls-2{fill:#a0335a;}.cls-3{fill:#b2365c;}.cls-4{fill:#f2bc88;}.cls-5{fill:#e3a76d;}.cls-6{fill:#ff79ab;}.cls-7{fill:#d36a95;}.cls-8{fill:#fff;}.cls-9{fill:#dbdbdd;}.cls-10{fill:#b5b5b5;}.cls-11{fill:#8dc5dc;}.cls-12{fill:#ccc;}.cls-13{fill:#23d3b5;}.cls-14{fill:#85b9c9;}.cls-15{fill:#22bc9f;}.cls-16{fill:#67efd5;}.cls-17{fill:#95f4e2;}.cls-18{fill:#74a2ad;}.cls-19{fill:#29327f;}.cls-20{fill:#222c66;}</style></defs><title>Dental Care</title><g id="BULINE"><circle class="cls-1" cx="256" cy="256" r="256"></circle></g><g id="Icons"><path class="cls-2" d="M504.48,317.81a253.25,253.25,0,0,1-14.79,42.85C449.68,449.86,360.09,512,256,512A254.94,254.94,0,0,1,96.13,456l-1.41,2,15.89,11.14a6.71,6.71,0,0,1,1.64,9.35l-4.54,6.48a6.71,6.71,0,0,1-9.35,1.64L44.67,448.92A6.72,6.72,0,0,1,43,439.57l4.54-6.48a6.72,6.72,0,0,1,9.35-1.64l15.89,11.14L76,438A256.81,256.81,0,0,1,28.75,374a253.83,253.83,0,0,1-16.18-38.51c33.58-36.2,90-64.41,158.18-78.35h0l.25-.05h0q9-1.86,18.36-3.36,7.83-1.26,15.82-2.27l1.42-.18c14.85-1.84,30.13-3,45.74-3.5h0l3.91-.11c3.89-.09,7.79-.13,11.72-.13C365.76,247.51,452.19,275.29,504.48,317.81Z"></path><path class="cls-3" d="M489.69,360.66C449.68,449.86,360.09,512,256,512A254.94,254.94,0,0,1,96.13,456l-1.41,2,15.89,11.14a6.71,6.71,0,0,1,1.64,9.35l-4.54,6.48a6.71,6.71,0,0,1-9.35,1.64L44.67,448.92A6.72,6.72,0,0,1,43,439.57l4.54-6.48a6.72,6.72,0,0,1,9.35-1.64l15.89,11.14L76,438A256.81,256.81,0,0,1,28.75,374c24.68-20.8,57.42-38.21,95.66-50.76a2.29,2.29,0,0,1,.28-.09c12.45-4.08,25.48-7.64,39-10.64l.42-.09q5.56-1.23,11.24-2.33,16.17-3.13,33.17-5.17h0q13.36-1.61,27.17-2.49,15.9-1,32.3-1C357,301.38,436.68,324.43,489.69,360.66Z"></path><path class="cls-4" d="M465.94,109.47a256,256,0,0,1,15.22,24.62v22.34H31.94V132.09a256.09,256.09,0,0,1,434-22.62Z"></path><path class="cls-4" d="M481.16,77.13v6.41a23.54,23.54,0,0,0-.93-6.54Z"></path><path class="cls-5" d="M465.94,109.47a100.83,100.83,0,0,1-16.57,10.76q-4,2.11-8.39,4.12-6.11,2.79-13,5.36a304.81,304.81,0,0,1-36.19,10.84c-11.32,2.7-23.47,5.06-36.31,7l-.16,0q-11.54,1.77-23.78,3.11c-10.83,1.19-22,2.12-33.55,2.75-3.49.2-7,.36-10.56.51l-2.07.08c-8.17.29-16.49.45-24.91.45h-1.58c-22.67,0-44.53-1.18-65.1-3.26-9.7-1-19.12-2.17-28.19-3.55l-.15,0a420.66,420.66,0,0,1-53.08-11.38,241.67,241.67,0,0,1-32.58-11.76q-4.35-2-8.29-4c-9.24-4.86-16.72-10.1-22.13-15.64A257.08,257.08,0,0,1,153.44,21.37c31.64-5.61,68-8.81,106.74-8.81a634.42,634.42,0,0,1,93.14,6.6,256.82,256.82,0,0,1,112.62,90.31Z"></path><path class="cls-6" d="M481.16,83.54a23.54,23.54,0,0,0-.93-6.54l.93.13Z"></path><path class="cls-6" d="M492.35,157.48H19.65a256,256,0,0,1,29.71-52.62A256.63,256.63,0,0,1,78.22,71.8q178.65-19.51,354.92-.62a256.93,256.93,0,0,1,48,62.91A253.53,253.53,0,0,1,492.35,157.48Z"></path><path class="cls-7" d="M70.57,129.4v27H450.35v-27a42.92,42.92,0,0,0-1.74-12.14l-.06-.21c-.06-.18-.11-.36-.18-.54a41.62,41.62,0,0,0-14.1-20.38,39,39,0,0,0-24-8.25H395.47c-.88,0-1.74,0-2.6.1l-.64,0c-.69.06-1.39.13-2.09.23l-.49.07c-.84.12-1.66.28-2.49.45l-.44.11c-.67.15-1.34.33-2,.52l-.63.19c-.74.22-1.49.47-2.21.75l-.13,0c-.77.28-1.52.61-2.27,1-.19.09-.39.17-.58.27-.58.27-1.15.56-1.73.86l-.52.28c-.71.4-1.4.8-2.08,1.24l-.37.23c-.57.38-1.12.76-1.66,1.15l-.56.42c-.57.42-1.12.86-1.68,1.32l-.23.19c-.62.52-1.22,1.08-1.8,1.63-.15.15-.29.3-.45.45-.46.45-.89.91-1.33,1.38l-.42.46c-.54.61-1.07,1.23-1.58,1.87l-.18.24c-.45.58-.88,1.16-1.3,1.75-.12.18-.24.37-.37.55-.4.59-.78,1.19-1.15,1.81l-.18.29c-.43.72-.83,1.45-1.22,2.19a.89.89,0,0,1-.08.17h0a42.5,42.5,0,0,0-4.6,19.31,42.57,42.57,0,0,0-1.75-12.14l-.06-.21q-.08-.27-.18-.54a41.49,41.49,0,0,0-14.1-20.38,39,39,0,0,0-24-8.25H300.52c-.88,0-1.74,0-2.6.1l-.63,0c-.7.06-1.4.13-2.09.23l-.5.07c-.84.12-1.66.28-2.48.45l-.45.11c-.67.15-1.34.33-2,.52l-.63.19q-1.12.33-2.22.75l-.12,0c-.77.28-1.53.61-2.27,1-.19.09-.39.17-.58.27-.59.27-1.16.56-1.73.86l-.53.28c-.7.4-1.4.8-2.08,1.24l-.37.23c-.56.38-1.12.76-1.66,1.15l-.55.42c-.58.42-1.13.86-1.68,1.32l-.24.19c-.61.52-1.21,1.08-1.79,1.63l-.45.45c-.46.45-.9.91-1.34,1.38-.13.16-.28.31-.42.46-.53.61-1.07,1.23-1.57,1.87a1.88,1.88,0,0,0-.18.24c-.45.58-.88,1.16-1.3,1.75-.13.18-.25.37-.37.55-.41.59-.79,1.19-1.16,1.81l-.18.29c-.43.72-.83,1.45-1.21,2.19l-.09.17h0a42.5,42.5,0,0,0-4.6,19.31,42.92,42.92,0,0,0-1.74-12.14l-.06-.21-.18-.54a41.57,41.57,0,0,0-14.11-20.38,39,39,0,0,0-24-8.25H205.57c-.87,0-1.73,0-2.59.1l-.64,0c-.7.06-1.39.13-2.09.23l-.5.07c-.84.12-1.66.28-2.48.45l-.45.11c-.66.15-1.33.33-2,.52l-.63.19c-.74.22-1.49.47-2.21.75l-.13,0c-.77.28-1.52.61-2.27,1-.19.09-.39.17-.58.27-.58.27-1.16.56-1.73.86l-.52.28c-.71.4-1.41.8-2.08,1.24l-.38.23-1.66,1.15-.55.42q-.86.63-1.68,1.32c-.08.06-.15.13-.24.19-.61.52-1.21,1.08-1.79,1.63l-.45.45c-.46.45-.9.91-1.34,1.38a6,6,0,0,1-.42.46c-.53.61-1.06,1.23-1.57,1.87-.07.08-.12.16-.18.24-.45.58-.88,1.16-1.3,1.75l-.37.55c-.4.59-.78,1.19-1.16,1.81a2.82,2.82,0,0,1-.18.29c-.43.72-.83,1.45-1.21,2.19l-.09.17h0a42.62,42.62,0,0,0-4.59,19.31,42.92,42.92,0,0,0-1.75-12.14l-.06-.21c-.06-.18-.11-.36-.18-.54a41.62,41.62,0,0,0-14.1-20.38,39,39,0,0,0-24-8.25H110.63c-.88,0-1.74,0-2.6.1l-.64,0c-.69.06-1.39.13-2.09.23l-.49.07c-.84.12-1.66.28-2.48.45l-.45.11c-.67.15-1.34.33-2,.52l-.63.19c-.74.22-1.49.47-2.21.75l-.12,0c-.78.28-1.53.61-2.28,1-.19.09-.39.17-.58.27-.58.27-1.15.56-1.72.86-.18.09-.36.18-.53.28-.71.4-1.4.8-2.08,1.24l-.37.23c-.56.38-1.12.76-1.66,1.15l-.56.42c-.57.42-1.12.86-1.68,1.32l-.23.19c-.61.52-1.22,1.08-1.8,1.63-.15.15-.29.3-.45.45-.45.45-.89.91-1.33,1.38l-.42.46c-.54.61-1.07,1.23-1.58,1.87l-.18.24c-.45.58-.88,1.16-1.3,1.75-.12.18-.24.37-.37.55-.4.59-.78,1.19-1.15,1.81l-.18.29c-.43.72-.83,1.45-1.22,2.19a.89.89,0,0,1-.08.17h0A42.5,42.5,0,0,0,70.57,129.4Z"></path><path class="cls-8" d="M110.62,110h14.84a40.06,40.06,0,0,1,40.06,40.06v55.69A13.26,13.26,0,0,1,152.25,219H83.83a13.26,13.26,0,0,1-13.26-13.26V150.1A40.06,40.06,0,0,1,110.62,110Z"></path><path class="cls-9" d="M160.93,131.46a40.21,40.21,0,0,0-11.73-1.75H134.36a40.05,40.05,0,0,0-40.05,40.06V219H83.83a13.25,13.25,0,0,1-13.26-13.26V150.1A40.05,40.05,0,0,1,110.62,110h14.84A40.07,40.07,0,0,1,160.93,131.46Z"></path><path class="cls-8" d="M205.57,110h14.84a40.06,40.06,0,0,1,40.06,40.06v55.69A13.26,13.26,0,0,1,247.2,219H178.78a13.26,13.26,0,0,1-13.26-13.26V150.1A40.06,40.06,0,0,1,205.57,110Z"></path><path class="cls-9" d="M255.87,131.46a40.16,40.16,0,0,0-11.73-1.75H229.31a40.05,40.05,0,0,0-40.06,40.06V219H178.78a13.25,13.25,0,0,1-13.26-13.26V150.1a40.05,40.05,0,0,1,40-40.06h14.84A40,40,0,0,1,255.87,131.46Z"></path><path class="cls-8" d="M300.52,110h14.84a40.06,40.06,0,0,1,40.06,40.06v55.69A13.26,13.26,0,0,1,342.14,219H273.73a13.26,13.26,0,0,1-13.26-13.26V150.1A40.06,40.06,0,0,1,300.52,110Z"></path><path class="cls-9" d="M350.82,131.46a40.21,40.21,0,0,0-11.73-1.75H324.25a40.05,40.05,0,0,0-40.05,40.06V219H273.72a13.26,13.26,0,0,1-13.26-13.26V150.1A40.05,40.05,0,0,1,300.52,110h14.83A40.07,40.07,0,0,1,350.82,131.46Z"></path><path class="cls-8" d="M395.46,110H410.3a40.06,40.06,0,0,1,40.06,40.06v55.69A13.26,13.26,0,0,1,437.09,219H368.67a13.26,13.26,0,0,1-13.26-13.26V150.1A40.06,40.06,0,0,1,395.46,110Z"></path><path class="cls-9" d="M445.77,131.46A40.21,40.21,0,0,0,434,129.71H419.2a40.06,40.06,0,0,0-40.06,40.06V219H368.67a13.25,13.25,0,0,1-13.26-13.26V150.1a40.05,40.05,0,0,1,40-40.06H410.3A40.07,40.07,0,0,1,445.77,131.46Z"></path><ellipse class="cls-7" cx="341.5" cy="80.86" rx="18.83" ry="7.02"></ellipse><path class="cls-10" d="M241.91,224.75a5,5,0,0,1-1.22-7L335.57,82.47a5,5,0,0,1,8.19,5.74L248.88,223.53A5,5,0,0,1,241.91,224.75Z"></path><path class="cls-11" d="M260.16,267.52,177.38,385.58l-64.69-45.35,82.79-118.06a11.71,11.71,0,0,1,16.32-2.86l45.49,31.9A11.71,11.71,0,0,1,260.16,267.52Z"></path><path class="cls-12" d="M226,214.79h30a9.89,9.89,0,0,1,9.89,9.89v12.61a0,0,0,0,1,0,0H216.09a0,0,0,0,1,0,0V224.69a9.89,9.89,0,0,1,9.89-9.89Z" transform="translate(173.46 -97.4) rotate(35.04)"></path><path class="cls-13" d="M260.16,267.52l-34.59,49.33-64.68-45.36,34.59-49.32a11.71,11.71,0,0,1,16.32-2.86l45.49,31.9A11.71,11.71,0,0,1,260.16,267.52Z"></path><path class="cls-14" d="M232.94,234.13A11.72,11.72,0,0,0,216.62,237L133.84,355.05l-21.29-14.93,82.78-118.06a11.73,11.73,0,0,1,16.32-2.86Z"></path><path class="cls-15" d="M232.94,234.13A11.72,11.72,0,0,0,216.62,237L182,286.31l-21.29-14.93,34.58-49.32a11.73,11.73,0,0,1,16.32-2.86Z"></path><circle class="cls-16" cx="236.41" cy="261.75" r="8"></circle><circle class="cls-17" cx="197.24" cy="252.19" r="8"></circle><circle class="cls-15" cx="208.44" cy="282.84" r="8"></circle><polygon class="cls-8" points="153.25 374.5 152.1 376.14 145.25 385.91 96.13 455.95 94.72 457.96 72.81 442.59 76 438.03 123.33 370.54 130.18 360.77 131.33 359.14 153.25 374.5"></polygon><rect class="cls-10" x="147.12" y="307.12" width="26.77" height="67.45" transform="matrix(0.82, 0.57, -0.57, 0.82, 224.78, -30.38)"></rect><rect class="cls-18" x="91.33" y="361.21" width="96.67" height="18.71" rx="4.67" transform="translate(238.06 -13.02) rotate(35.04)"></rect><path class="cls-8" d="M112.25,478.45l-4.54,6.48a6.71,6.71,0,0,1-9.35,1.64L44.67,448.92A6.72,6.72,0,0,1,43,439.57l4.54-6.48a6.72,6.72,0,0,1,9.35-1.64l15.89,11.14L94.72,458l15.89,11.14A6.71,6.71,0,0,1,112.25,478.45Z"></path><rect class="cls-19" x="147.05" y="292.06" width="79" height="23.28" transform="translate(208.17 -52.06) rotate(35.04)"></rect><rect class="cls-20" x="153.07" y="275.38" width="23.28" height="26" transform="translate(-165.97 257.67) rotate(-54.96)"></rect></g></svg>